<svg width="53" height="48" viewBox="0 0 53 48" fill="none" xmlns="http://www.w3.org/2000/svg">
<path d="M4.78429 42.4919V10.7176C4.78415 10.2272 4.93512 9.74862 5.21672 9.34686C5.49831 8.9451 5.89689 8.63963 6.35833 8.47191L29.4928 0.0720299C29.6735 0.00634528 29.8674 -0.0148525 30.0581 0.0102337C30.2487 0.03532 30.4305 0.105951 30.588 0.216137C30.7455 0.326324 30.8741 0.472817 30.9629 0.643197C31.0517 0.813578 31.098 1.00282 31.0979 1.19488V13.0278L46.2067 18.0567C46.6832 18.2153 47.0977 18.5195 47.3914 18.9265C47.6851 19.3334 47.8431 19.8223 47.8429 20.3239V42.4919H52.6272V47.27H0V42.4919H4.78429ZM9.56859 42.4919H26.3136V6.30982L9.56859 12.3923V42.4919ZM43.0586 42.4919V22.0465L31.0979 18.0639V42.4919H43.0586Z" fill="#F8F8F8"/>
</svg>
