<svg width="49" height="50" viewBox="0 0 49 50" fill="none" xmlns="http://www.w3.org/2000/svg">
<path d="M0 47.3847C0 47.3847 5.48087 43.0101 7.72122 37.7082C10.2077 31.8239 9.68425 24.1088 9.68425 24.1088L9.55338 15.4784C9.55338 15.4784 8.6373 8.94928 12.8251 4.10197C17.0129 -0.745348 22.9019 0.0482937 22.9019 0.0482937V5.14808C22.9019 5.14808 20.4154 4.49426 17.9289 7.10953C15.4425 9.7248 15.5733 12.6016 15.5733 12.6016L15.3484 20.3167H22.9019L28.6601 29.9932C28.6601 29.9932 30.0896 27.1241 30.754 25.2857C31.4184 23.4473 32.0627 20.5782 32.0627 20.5782H37.2974C37.2974 20.5782 34.4338 31.2297 30.754 36.9236C27.0743 42.6175 18.4524 49.7385 18.4524 49.7385L14.5264 47.1232C14.5264 47.1232 18.8211 43.7922 21.0698 41.2388C23.3185 38.6855 26.1736 34.3084 26.1736 34.3084L20.5463 25.8087H15.1883L15.1807 26.0703C15.1807 26.0703 15.4424 33.2623 12.5633 39.8038C9.68425 46.3453 4.18778 50 4.18778 50L0 47.3847Z" fill="white"/>
<path d="M31.0158 49.7385L27.2206 46.7309C27.2206 46.7309 33.5736 39.5937 36.5122 34.3084C39.4509 29.023 41.2235 20.3167 41.2235 20.3167L47.1126 20.5782C47.1126 20.5782 47.2848 26.4626 41.2235 36.9236C35.1622 47.3847 31.0158 49.7385 31.0158 49.7385Z" fill="white"/>
<path d="M48.1595 16.6553C48.1595 18.4607 46.6947 19.9244 44.8878 19.9244C43.0809 19.9244 41.6161 18.4607 41.6161 16.6553C41.6161 14.8498 43.0809 13.3862 44.8878 13.3862C46.6947 13.3862 48.1595 14.8498 48.1595 16.6553Z" fill="white"/>
</svg>
