<svg width="49" height="50" viewBox="0 0 49 50" fill="none" xmlns="http://www.w3.org/2000/svg">
<path d="M24.635 11.958C24.635 11.1422 23.9736 10.4808 23.1578 10.4808C22.342 10.4808 21.6806 11.1422 21.6806 11.958V28.207C21.6806 28.7371 21.9647 29.2266 22.4249 29.4896L32.7652 35.3983C33.4735 35.8031 34.3759 35.557 34.7807 34.8487C35.1854 34.1403 34.9393 33.238 34.231 32.8332L24.635 27.3498V11.958Z" fill="#F8F8F8"/>
<path d="M24.635 48.8876C37.6882 48.8876 48.27 38.3059 48.27 25.2527C48.27 12.1994 37.6882 1.61768 24.635 1.61768C11.5817 1.61768 1 12.1994 1 25.2527C1 38.3059 11.5817 48.8876 24.635 48.8876ZM45.3156 25.2527C45.3156 36.6742 36.0566 45.9333 24.635 45.9333C13.2134 45.9333 3.95437 36.6742 3.95437 25.2527C3.95437 13.8311 13.2134 4.57205 24.635 4.57205C36.0566 4.57205 45.3156 13.8311 45.3156 25.2527Z" fill="#F8F8F8"/>
<path d="M24.635 11.958C24.635 11.1422 23.9736 10.4808 23.1578 10.4808C22.342 10.4808 21.6806 11.1422 21.6806 11.958V28.207C21.6806 28.7371 21.9647 29.2266 22.4249 29.4896L32.7652 35.3983C33.4735 35.8031 34.3759 35.557 34.7807 34.8487C35.1854 34.1403 34.9393 33.238 34.231 32.8332L24.635 27.3498V11.958Z" stroke="#F8F8F8" stroke-width="1.4181" stroke-linecap="round" stroke-linejoin="round"/>
<path d="M24.635 48.8876C37.6882 48.8876 48.27 38.3059 48.27 25.2527C48.27 12.1994 37.6882 1.61768 24.635 1.61768C11.5817 1.61768 1 12.1994 1 25.2527C1 38.3059 11.5817 48.8876 24.635 48.8876ZM45.3156 25.2527C45.3156 36.6742 36.0566 45.9333 24.635 45.9333C13.2134 45.9333 3.95437 36.6742 3.95437 25.2527C3.95437 13.8311 13.2134 4.57205 24.635 4.57205C36.0566 4.57205 45.3156 13.8311 45.3156 25.2527Z" stroke="#F8F8F8" stroke-width="1.4181" stroke-linecap="round" stroke-linejoin="round"/>
</svg>
