<svg width="39" height="39" viewBox="0 0 39 39" fill="none" xmlns="http://www.w3.org/2000/svg">
<path d="M1.88099 14.114L18.658 23.8074C19.0308 23.9938 19.2172 23.9938 19.5901 23.9938C19.9629 23.9938 20.1493 23.9938 20.5221 23.8074L37.2991 14.114C37.6719 13.9276 37.8584 13.7412 38.0448 13.3684C38.4176 12.4363 38.2312 11.3179 37.2991 10.7586L20.5221 1.06526C19.9629 0.692439 19.2172 0.692439 18.658 1.06526L1.88099 10.7586C1.50817 10.9451 1.32176 11.1315 1.13535 11.5043C0.762526 12.4363 0.948937 13.5548 1.88099 14.114ZM37.2991 18.2151L36.9263 18.0287L20.5221 27.5356C19.9629 27.9085 19.2172 27.9085 18.658 27.5356L2.25382 18.0287L1.88099 18.2151C0.948937 18.7743 0.762526 19.8928 1.13535 20.8248C1.32176 21.1977 1.50817 21.3841 1.88099 21.5705L18.658 31.2639C19.2172 31.6367 19.9629 31.6367 20.5221 31.2639L37.2991 21.5705C38.2312 21.0113 38.4176 19.8928 38.0448 18.9607C37.8584 18.5879 37.6719 18.4015 37.2991 18.2151ZM37.2991 25.6715L36.9263 25.4851L20.5221 34.9921C19.9629 35.3649 19.2172 35.3649 18.658 34.9921L2.25382 25.4851L1.88099 25.6715C0.948937 26.2308 0.762526 27.3492 1.13535 28.2813C1.32176 28.6541 1.50817 28.8405 1.88099 29.0269L18.658 38.7203C19.2172 39.0931 19.9629 39.0931 20.5221 38.7203L37.2991 29.0269C38.2312 28.4677 38.4176 27.3492 38.0448 26.4172C37.8584 26.0444 37.6719 25.8579 37.2991 25.6715Z" fill="#004B6D"/>
</svg>
