<svg width="1766" height="460" viewBox="0 0 1766 460" fill="none" xmlns="http://www.w3.org/2000/svg">
<path d="M545.006 304H534.464V213.339H585.004V222.703H545.006V255.879H582.585V265.243H545.006V304ZM657.186 269.956C657.186 281.035 654.395 289.696 648.814 295.938C643.233 302.14 635.523 305.24 625.684 305.24C619.606 305.24 614.211 303.814 609.499 300.961C604.786 298.109 601.148 294.016 598.584 288.683C596.021 283.35 594.74 277.108 594.74 269.956C594.74 258.876 597.51 250.257 603.049 244.097C608.589 237.896 616.278 234.795 626.118 234.795C635.626 234.795 643.171 237.958 648.752 244.283C654.374 250.608 657.186 259.166 657.186 269.956ZM605.406 269.956C605.406 278.637 607.142 285.252 610.615 289.799C614.087 294.347 619.193 296.621 625.932 296.621C632.67 296.621 637.776 294.368 641.249 289.861C644.763 285.314 646.52 278.679 646.52 269.956C646.52 261.315 644.763 254.763 641.249 250.298C637.776 245.792 632.629 243.539 625.808 243.539C619.069 243.539 613.984 245.75 610.553 250.174C607.121 254.597 605.406 261.191 605.406 269.956ZM706.299 234.795C709.317 234.795 712.025 235.043 714.422 235.539L712.996 245.089C710.185 244.469 707.704 244.159 705.555 244.159C700.056 244.159 695.343 246.391 691.416 250.856C687.53 255.321 685.587 260.881 685.587 267.537V304H675.293V236.035H683.789L684.967 248.624H685.463C687.985 244.2 691.023 240.789 694.579 238.392C698.134 235.994 702.041 234.795 706.299 234.795ZM784.744 258.669L808.928 213.339H820.338L790.077 268.839V304H779.411V269.335L749.211 213.339H760.745L784.744 258.669ZM889.978 269.956C889.978 281.035 887.187 289.696 881.606 295.938C876.025 302.14 868.315 305.24 858.476 305.24C852.398 305.24 847.003 303.814 842.291 300.961C837.578 298.109 833.94 294.016 831.376 288.683C828.813 283.35 827.532 277.108 827.532 269.956C827.532 258.876 830.302 250.257 835.841 244.097C841.381 237.896 849.07 234.795 858.91 234.795C868.418 234.795 875.963 237.958 881.544 244.283C887.166 250.608 889.978 259.166 889.978 269.956ZM838.198 269.956C838.198 278.637 839.934 285.252 843.407 289.799C846.879 294.347 851.985 296.621 858.724 296.621C865.462 296.621 870.568 294.368 874.041 289.861C877.555 285.314 879.312 278.679 879.312 269.956C879.312 261.315 877.555 254.763 874.041 250.298C870.568 245.792 865.421 243.539 858.6 243.539C851.861 243.539 846.776 245.75 843.345 250.174C839.913 254.597 838.198 261.191 838.198 269.956ZM917.759 236.035V280.125C917.759 285.665 919.02 289.799 921.542 292.528C924.063 295.256 928.011 296.621 933.386 296.621C940.496 296.621 945.685 294.678 948.951 290.792C952.258 286.905 953.912 280.56 953.912 271.754V236.035H964.206V304H955.71L954.222 294.884H953.664C951.555 298.233 948.62 300.796 944.858 302.574C941.137 304.351 936.879 305.24 932.083 305.24C923.815 305.24 917.614 303.277 913.48 299.349C909.387 295.422 907.341 289.138 907.341 280.498V236.035H917.759ZM1017.1 234.795C1020.12 234.795 1022.83 235.043 1025.23 235.539L1023.8 245.089C1020.99 244.469 1018.51 244.159 1016.36 244.159C1010.86 244.159 1006.15 246.391 1002.22 250.856C998.333 255.321 996.39 260.881 996.39 267.537V304H986.096V236.035H994.591L995.77 248.624H996.266C998.787 244.2 1001.83 240.789 1005.38 238.392C1008.94 235.994 1012.84 234.795 1017.1 234.795ZM1072.48 304V213.339H1083.02V304H1072.48ZM1152.91 304V260.034C1152.91 254.494 1151.65 250.36 1149.12 247.631C1146.6 244.903 1142.65 243.539 1137.28 243.539C1130.17 243.539 1124.96 245.461 1121.65 249.306C1118.35 253.15 1116.69 259.496 1116.69 268.343V304H1106.4V236.035H1114.77L1116.44 245.337H1116.94C1119.05 241.988 1122 239.404 1125.81 237.585C1129.61 235.725 1133.85 234.795 1138.52 234.795C1146.71 234.795 1152.87 236.779 1157 240.748C1161.13 244.675 1163.2 250.98 1163.2 259.662V304H1152.91ZM1215.04 244.035H1197.74V304H1187.45V244.035H1175.29V239.384L1187.45 235.663V231.88C1187.45 215.179 1194.74 206.828 1209.34 206.828C1212.93 206.828 1217.15 207.551 1221.99 208.998L1219.32 217.246C1215.35 215.964 1211.96 215.323 1209.15 215.323C1205.27 215.323 1202.39 216.625 1200.53 219.23C1198.67 221.793 1197.74 225.927 1197.74 231.632V236.035H1215.04V244.035ZM1286.11 269.956C1286.11 281.035 1283.32 289.696 1277.74 295.938C1272.16 302.14 1264.45 305.24 1254.61 305.24C1248.53 305.24 1243.13 303.814 1238.42 300.961C1233.71 298.109 1230.07 294.016 1227.51 288.683C1224.94 283.35 1223.66 277.108 1223.66 269.956C1223.66 258.876 1226.43 250.257 1231.97 244.097C1237.51 237.896 1245.2 234.795 1255.04 234.795C1264.55 234.795 1272.09 237.958 1277.67 244.283C1283.3 250.608 1286.11 259.166 1286.11 269.956ZM1234.33 269.956C1234.33 278.637 1236.06 285.252 1239.54 289.799C1243.01 294.347 1248.12 296.621 1254.85 296.621C1261.59 296.621 1266.7 294.368 1270.17 289.861C1273.69 285.314 1275.44 278.679 1275.44 269.956C1275.44 261.315 1273.69 254.763 1270.17 250.298C1266.7 245.792 1261.55 243.539 1254.73 243.539C1247.99 243.539 1242.91 245.75 1239.48 250.174C1236.04 254.597 1234.33 261.191 1234.33 269.956ZM1335.22 234.795C1338.24 234.795 1340.95 235.043 1343.35 235.539L1341.92 245.089C1339.11 244.469 1336.63 244.159 1334.48 244.159C1328.98 244.159 1324.27 246.391 1320.34 250.856C1316.45 255.321 1314.51 260.881 1314.51 267.537V304H1304.22V236.035H1312.71L1313.89 248.624H1314.39C1316.91 244.2 1319.95 240.789 1323.5 238.392C1327.06 235.994 1330.96 234.795 1335.22 234.795ZM1442.69 304V259.786C1442.69 254.37 1441.53 250.319 1439.22 247.631C1436.9 244.903 1433.3 243.539 1428.43 243.539C1422.02 243.539 1417.28 245.378 1414.22 249.058C1411.17 252.737 1409.64 258.401 1409.64 266.049V304H1399.34V259.786C1399.34 254.37 1398.18 250.319 1395.87 247.631C1393.55 244.903 1389.94 243.539 1385.02 243.539C1378.57 243.539 1373.83 245.482 1370.82 249.368C1367.84 253.212 1366.35 259.538 1366.35 268.343V304H1356.06V236.035H1364.43L1366.1 245.337H1366.6C1368.54 242.03 1371.27 239.446 1374.79 237.585C1378.34 235.725 1382.31 234.795 1386.69 234.795C1397.32 234.795 1404.26 238.64 1407.53 246.329H1408.02C1410.05 242.774 1412.98 239.963 1416.83 237.896C1420.67 235.828 1425.06 234.795 1429.98 234.795C1437.67 234.795 1443.41 236.779 1447.21 240.748C1451.06 244.675 1452.98 250.98 1452.98 259.662V304H1442.69ZM1516.05 304L1514 294.326H1513.51C1510.12 298.584 1506.73 301.478 1503.34 303.008C1499.99 304.496 1495.79 305.24 1490.75 305.24C1484.01 305.24 1478.72 303.504 1474.87 300.031C1471.07 296.559 1469.17 291.618 1469.17 285.21C1469.17 271.485 1480.14 264.292 1502.1 263.63L1513.63 263.258V259.042C1513.63 253.708 1512.47 249.781 1510.16 247.259C1507.88 244.696 1504.22 243.415 1499.18 243.415C1493.52 243.415 1487.11 245.151 1479.96 248.624L1476.79 240.748C1480.14 238.929 1483.8 237.503 1487.77 236.469C1491.78 235.436 1495.79 234.919 1499.8 234.919C1507.9 234.919 1513.9 236.717 1517.78 240.314C1521.71 243.911 1523.68 249.678 1523.68 257.615V304H1516.05ZM1492.79 296.745C1499.2 296.745 1504.22 294.988 1507.86 291.474C1511.54 287.96 1513.38 283.04 1513.38 276.715V270.576L1503.09 271.01C1494.9 271.299 1488.99 272.581 1485.35 274.854C1481.76 277.087 1479.96 280.58 1479.96 285.334C1479.96 289.055 1481.07 291.887 1483.31 293.83C1485.58 295.773 1488.74 296.745 1492.79 296.745ZM1566.9 296.745C1568.72 296.745 1570.47 296.621 1572.17 296.373C1573.86 296.083 1575.21 295.794 1576.2 295.504V303.38C1575.08 303.917 1573.43 304.351 1571.24 304.682C1569.09 305.054 1567.15 305.24 1565.41 305.24C1552.26 305.24 1545.69 298.316 1545.69 284.466V244.035H1535.95V239.074L1545.69 234.795L1550.03 220.284H1555.98V236.035H1575.7V244.035H1555.98V284.032C1555.98 288.125 1556.95 291.267 1558.9 293.458C1560.84 295.649 1563.51 296.745 1566.9 296.745ZM1600.14 304H1589.84V236.035H1600.14V304ZM1588.97 217.618C1588.97 215.261 1589.55 213.546 1590.71 212.471C1591.87 211.354 1593.31 210.796 1595.05 210.796C1596.7 210.796 1598.13 211.354 1599.33 212.471C1600.53 213.587 1601.13 215.303 1601.13 217.618C1601.13 219.933 1600.53 221.669 1599.33 222.827C1598.13 223.943 1596.7 224.501 1595.05 224.501C1593.31 224.501 1591.87 223.943 1590.71 222.827C1589.55 221.669 1588.97 219.933 1588.97 217.618ZM1680.63 269.956C1680.63 281.035 1677.84 289.696 1672.26 295.938C1666.67 302.14 1658.96 305.24 1649.12 305.24C1643.05 305.24 1637.65 303.814 1632.94 300.961C1628.23 298.109 1624.59 294.016 1622.03 288.683C1619.46 283.35 1618.18 277.108 1618.18 269.956C1618.18 258.876 1620.95 250.257 1626.49 244.097C1632.03 237.896 1639.72 234.795 1649.56 234.795C1659.07 234.795 1666.61 237.958 1672.19 244.283C1677.82 250.608 1680.63 259.166 1680.63 269.956ZM1628.85 269.956C1628.85 278.637 1630.58 285.252 1634.06 289.799C1637.53 294.347 1642.63 296.621 1649.37 296.621C1656.11 296.621 1661.22 294.368 1664.69 289.861C1668.2 285.314 1669.96 278.679 1669.96 269.956C1669.96 261.315 1668.2 254.763 1664.69 250.298C1661.22 245.792 1656.07 243.539 1649.25 243.539C1642.51 243.539 1637.43 245.75 1633.99 250.174C1630.56 254.597 1628.85 261.191 1628.85 269.956ZM1745.24 304V260.034C1745.24 254.494 1743.98 250.36 1741.46 247.631C1738.94 244.903 1734.99 243.539 1729.62 243.539C1722.51 243.539 1717.3 245.461 1713.99 249.306C1710.68 253.15 1709.03 259.496 1709.03 268.343V304H1698.73V236.035H1707.11L1708.78 245.337H1709.28C1711.38 241.988 1714.34 239.404 1718.14 237.585C1721.95 235.725 1726.18 234.795 1730.86 234.795C1739.04 234.795 1745.2 236.779 1749.34 240.748C1753.47 244.675 1755.54 250.98 1755.54 259.662V304H1745.24ZM534.464 429V338.339H545.006V419.45H585.004V429H534.464ZM627.606 430.24C617.56 430.24 609.623 427.181 603.793 421.062C598.006 414.944 595.112 406.448 595.112 395.576C595.112 384.62 597.799 375.918 603.173 369.469C608.589 363.02 615.844 359.795 624.939 359.795C633.456 359.795 640.194 362.606 645.155 368.229C650.116 373.81 652.597 381.189 652.597 390.367V396.878H605.778C605.985 404.857 607.99 410.913 611.793 415.047C615.638 419.181 621.033 421.249 627.978 421.249C635.295 421.249 642.53 419.719 649.682 416.66V425.837C646.044 427.408 642.592 428.525 639.326 429.186C636.102 429.889 632.195 430.24 627.606 430.24ZM624.815 368.415C619.358 368.415 614.997 370.192 611.731 373.748C608.506 377.303 606.605 382.222 606.026 388.506H641.559C641.559 382.016 640.112 377.055 637.218 373.624C634.324 370.151 630.19 368.415 624.815 368.415ZM712.004 429L709.958 419.326H709.461C706.071 423.584 702.681 426.478 699.292 428.008C695.943 429.496 691.747 430.24 686.703 430.24C679.965 430.24 674.673 428.504 670.828 425.031C667.025 421.559 665.123 416.618 665.123 410.21C665.123 396.485 676.099 389.292 698.051 388.63L709.585 388.258V384.042C709.585 378.708 708.428 374.781 706.113 372.259C703.839 369.696 700.18 368.415 695.137 368.415C689.473 368.415 683.065 370.151 675.913 373.624L672.75 365.748C676.099 363.929 679.758 362.503 683.727 361.469C687.737 360.436 691.747 359.919 695.757 359.919C703.86 359.919 709.854 361.717 713.74 365.314C717.668 368.911 719.631 374.678 719.631 382.615V429H712.004ZM688.75 421.745C695.157 421.745 700.18 419.988 703.818 416.474C707.498 412.96 709.337 408.04 709.337 401.715V395.576L699.043 396.01C690.858 396.299 684.946 397.581 681.308 399.854C677.711 402.087 675.913 405.58 675.913 410.334C675.913 414.055 677.029 416.887 679.262 418.83C681.535 420.773 684.698 421.745 688.75 421.745ZM771.907 359.795C774.925 359.795 777.633 360.043 780.031 360.539L778.604 370.089C775.793 369.469 773.313 369.159 771.163 369.159C765.665 369.159 760.952 371.391 757.024 375.856C753.138 380.321 751.195 385.881 751.195 392.537V429H740.901V361.035H749.397L750.575 373.624H751.071C753.593 369.2 756.632 365.789 760.187 363.392C763.742 360.994 767.649 359.795 771.907 359.795ZM839.252 429V385.034C839.252 379.494 837.991 375.36 835.469 372.631C832.947 369.903 828.999 368.539 823.625 368.539C816.514 368.539 811.305 370.461 807.998 374.306C804.691 378.15 803.037 384.496 803.037 393.343V429H792.743V361.035H801.115L802.789 370.337H803.285C805.394 366.988 808.349 364.404 812.153 362.585C815.956 360.725 820.194 359.795 824.865 359.795C833.051 359.795 839.211 361.779 843.345 365.748C847.479 369.675 849.546 375.98 849.546 384.662V429H839.252ZM881.048 429H870.754V361.035H881.048V429ZM869.886 342.618C869.886 340.261 870.465 338.546 871.622 337.471C872.78 336.354 874.227 335.796 875.963 335.796C877.617 335.796 879.043 336.354 880.242 337.471C881.441 338.587 882.04 340.303 882.04 342.618C882.04 344.933 881.441 346.669 880.242 347.827C879.043 348.943 877.617 349.501 875.963 349.501C874.227 349.501 872.78 348.943 871.622 347.827C870.465 346.669 869.886 344.933 869.886 342.618ZM949.385 429V385.034C949.385 379.494 948.124 375.36 945.602 372.631C943.08 369.903 939.132 368.539 933.758 368.539C926.647 368.539 921.438 370.461 918.131 374.306C914.824 378.15 913.17 384.496 913.17 393.343V429H902.876V361.035H911.248L912.922 370.337H913.418C915.526 366.988 918.482 364.404 922.286 362.585C926.089 360.725 930.326 359.795 934.998 359.795C943.184 359.795 949.343 361.779 953.478 365.748C957.612 369.675 959.679 375.98 959.679 384.662V429H949.385ZM1036.51 361.035V367.546L1023.92 369.035C1025.08 370.482 1026.11 372.383 1027.02 374.74C1027.93 377.055 1028.39 379.68 1028.39 382.615C1028.39 389.271 1026.11 394.583 1021.57 398.552C1017.02 402.521 1010.78 404.505 1002.84 404.505C1000.81 404.505 998.911 404.34 997.134 404.009C992.752 406.324 990.561 409.239 990.561 412.753C990.561 414.613 991.325 415.998 992.855 416.908C994.385 417.776 997.01 418.21 1000.73 418.21H1012.76C1020.12 418.21 1025.76 419.76 1029.69 422.861C1033.66 425.961 1035.64 430.468 1035.64 436.379C1035.64 443.903 1032.63 449.629 1026.59 453.557C1020.55 457.525 1011.75 459.51 1000.17 459.51C991.284 459.51 984.421 457.856 979.584 454.549C974.789 451.242 972.391 446.57 972.391 440.534C972.391 436.4 973.714 432.824 976.36 429.806C979.006 426.788 982.726 424.742 987.522 423.667C985.786 422.882 984.318 421.662 983.119 420.008C981.962 418.355 981.383 416.432 981.383 414.241C981.383 411.761 982.044 409.59 983.367 407.73C984.69 405.87 986.778 404.071 989.63 402.335C986.116 400.888 983.243 398.428 981.011 394.956C978.82 391.483 977.724 387.514 977.724 383.049C977.724 375.608 979.957 369.882 984.421 365.872C988.886 361.821 995.211 359.795 1003.4 359.795C1006.95 359.795 1010.16 360.208 1013.01 361.035H1036.51ZM982.313 440.41C982.313 444.09 983.863 446.88 986.964 448.782C990.064 450.683 994.509 451.634 1000.3 451.634C1008.94 451.634 1015.32 450.332 1019.46 447.728C1023.63 445.164 1025.72 441.671 1025.72 437.248C1025.72 433.568 1024.58 431.005 1022.31 429.558C1020.04 428.153 1015.76 427.45 1009.47 427.45H997.134C992.462 427.45 988.824 428.566 986.22 430.798C983.615 433.031 982.313 436.235 982.313 440.41ZM987.894 382.801C987.894 387.556 989.238 391.152 991.925 393.591C994.612 396.03 998.353 397.25 1003.15 397.25C1013.19 397.25 1018.22 392.372 1018.22 382.615C1018.22 372.404 1013.13 367.298 1002.96 367.298C998.126 367.298 994.405 368.601 991.801 371.205C989.196 373.81 987.894 377.675 987.894 382.801ZM1136.16 404.877C1136.16 412.856 1133.27 419.078 1127.48 423.543C1121.69 428.008 1113.84 430.24 1103.92 430.24C1093.17 430.24 1084.9 428.855 1079.11 426.085V415.916C1082.83 417.486 1086.89 418.727 1091.27 419.636C1095.65 420.546 1099.99 421 1104.29 421C1111.32 421 1116.61 419.678 1120.17 417.032C1123.72 414.345 1125.5 410.624 1125.5 405.87C1125.5 402.728 1124.86 400.165 1123.58 398.18C1122.34 396.154 1120.23 394.294 1117.25 392.599C1114.32 390.904 1109.83 388.982 1103.79 386.832C1095.36 383.814 1089.32 380.238 1085.69 376.104C1082.09 371.97 1080.29 366.575 1080.29 359.919C1080.29 352.932 1082.92 347.372 1088.17 343.238C1093.42 339.104 1100.36 337.037 1109 337.037C1118.02 337.037 1126.3 338.69 1133.87 341.998L1130.58 351.175C1123.1 348.033 1115.82 346.462 1108.75 346.462C1103.17 346.462 1098.81 347.661 1095.67 350.059C1092.53 352.457 1090.96 355.785 1090.96 360.043C1090.96 363.185 1091.54 365.769 1092.69 367.794C1093.85 369.779 1095.79 371.618 1098.52 373.313C1101.29 374.967 1105.51 376.807 1111.17 378.833C1120.68 382.222 1127.21 385.861 1130.77 389.747C1134.37 393.633 1136.16 398.676 1136.16 404.877ZM1211.82 394.956C1211.82 406.035 1209.03 414.696 1203.45 420.938C1197.87 427.14 1190.16 430.24 1180.32 430.24C1174.24 430.24 1168.84 428.814 1164.13 425.961C1159.42 423.109 1155.78 419.016 1153.22 413.683C1150.65 408.35 1149.37 402.108 1149.37 394.956C1149.37 383.876 1152.14 375.257 1157.68 369.097C1163.22 362.896 1170.91 359.795 1180.75 359.795C1190.26 359.795 1197.8 362.958 1203.38 369.283C1209.01 375.608 1211.82 384.166 1211.82 394.956ZM1160.04 394.956C1160.04 403.637 1161.77 410.252 1165.25 414.799C1168.72 419.347 1173.83 421.621 1180.56 421.621C1187.3 421.621 1192.41 419.368 1195.88 414.861C1199.4 410.314 1201.15 403.679 1201.15 394.956C1201.15 386.315 1199.4 379.763 1195.88 375.298C1192.41 370.792 1187.26 368.539 1180.44 368.539C1173.7 368.539 1168.62 370.75 1165.19 375.174C1161.75 379.597 1160.04 386.191 1160.04 394.956ZM1240.22 429H1229.93V332.51H1240.22V429ZM1271.72 361.035V405.125C1271.72 410.665 1272.98 414.799 1275.5 417.528C1278.03 420.256 1281.97 421.621 1287.35 421.621C1294.46 421.621 1299.65 419.678 1302.91 415.792C1306.22 411.905 1307.87 405.56 1307.87 396.754V361.035H1318.17V429H1309.67L1308.18 419.884H1307.63C1305.52 423.233 1302.58 425.796 1298.82 427.574C1295.1 429.351 1290.84 430.24 1286.05 430.24C1277.78 430.24 1271.58 428.277 1267.44 424.349C1263.35 420.422 1261.3 414.138 1261.3 405.498V361.035H1271.72ZM1362.01 421.745C1363.83 421.745 1365.59 421.621 1367.28 421.373C1368.98 421.083 1370.32 420.794 1371.31 420.504V428.38C1370.2 428.917 1368.54 429.351 1366.35 429.682C1364.2 430.054 1362.26 430.24 1360.52 430.24C1347.38 430.24 1340.8 423.316 1340.8 409.466V369.035H1331.07V364.074L1340.8 359.795L1345.14 345.284H1351.1V361.035H1370.82V369.035H1351.1V409.032C1351.1 413.125 1352.07 416.267 1354.01 418.458C1355.95 420.649 1358.62 421.745 1362.01 421.745ZM1395.25 429H1384.96V361.035H1395.25V429ZM1384.09 342.618C1384.09 340.261 1384.67 338.546 1385.82 337.471C1386.98 336.354 1388.43 335.796 1390.16 335.796C1391.82 335.796 1393.24 336.354 1394.44 337.471C1395.64 338.587 1396.24 340.303 1396.24 342.618C1396.24 344.933 1395.64 346.669 1394.44 347.827C1393.24 348.943 1391.82 349.501 1390.16 349.501C1388.43 349.501 1386.98 348.943 1385.82 347.827C1384.67 346.669 1384.09 344.933 1384.09 342.618ZM1475.74 394.956C1475.74 406.035 1472.95 414.696 1467.37 420.938C1461.79 427.14 1454.08 430.24 1444.24 430.24C1438.16 430.24 1432.77 428.814 1428.05 425.961C1423.34 423.109 1419.7 419.016 1417.14 413.683C1414.58 408.35 1413.29 402.108 1413.29 394.956C1413.29 383.876 1416.06 375.257 1421.6 369.097C1427.14 362.896 1434.83 359.795 1444.67 359.795C1454.18 359.795 1461.73 362.958 1467.31 369.283C1472.93 375.608 1475.74 384.166 1475.74 394.956ZM1423.96 394.956C1423.96 403.637 1425.7 410.252 1429.17 414.799C1432.64 419.347 1437.75 421.621 1444.49 421.621C1451.22 421.621 1456.33 419.368 1459.8 414.861C1463.32 410.314 1465.07 403.679 1465.07 394.956C1465.07 386.315 1463.32 379.763 1459.8 375.298C1456.33 370.792 1451.18 368.539 1444.36 368.539C1437.62 368.539 1432.54 370.75 1429.11 375.174C1425.68 379.597 1423.96 386.191 1423.96 394.956ZM1540.36 429V385.034C1540.36 379.494 1539.1 375.36 1536.57 372.631C1534.05 369.903 1530.1 368.539 1524.73 368.539C1517.62 368.539 1512.41 370.461 1509.1 374.306C1505.8 378.15 1504.14 384.496 1504.14 393.343V429H1493.85V361.035H1502.22L1503.89 370.337H1504.39C1506.5 366.988 1509.45 364.404 1513.26 362.585C1517.06 360.725 1521.3 359.795 1525.97 359.795C1534.16 359.795 1540.32 361.779 1544.45 365.748C1548.58 369.675 1550.65 375.98 1550.65 384.662V429H1540.36Z" fill="white"/>
<path d="M117 393.755V186.509C121.921 162.448 146.31 113.343 204.492 109.406V132.373C186.629 134.196 148.388 147.575 138.326 186.509V263.064H204.492L243.863 353.29L285.969 263.064H332.449V393.755H310.576V268.532L223.084 455H204.492L235.661 379.538L191.915 287.125H138.326V393.755H117Z" fill="white"/>
<path d="M316.591 220.959C325.349 220.959 332.449 213.614 332.449 204.554C332.449 195.494 325.349 188.149 316.591 188.149C307.833 188.149 300.733 195.494 300.733 204.554C300.733 213.614 307.833 220.959 316.591 220.959Z" fill="white"/>
<path fill-rule="evenodd" clip-rule="evenodd" d="M469 0H0V69.9056V142.029V455H42.1982H209.768H469V0ZM209.768 455L451.29 422.435L396.549 16.4386L0 69.9056V142.029L42.1982 455H209.768Z" fill="white"/>
</svg>
