<svg width="72" height="72" viewBox="0 0 72 72" fill="none" xmlns="http://www.w3.org/2000/svg">
<g clip-path="url(#clip0_838:353)">
<path d="M14.172 7.51548C14.172 7.51548 13.932 7.89648 14.16 8.46048C14.298 8.80848 14.718 9.22848 15.18 9.67248C15.18 9.67248 20.025 14.4005 20.619 15.0845C23.304 18.1835 24.471 21.2345 24.579 25.4435C24.645 28.1435 24.126 30.5195 22.86 33.2825C20.592 38.2295 15.81 43.6865 8.43002 49.7525L9.51002 49.3925C10.209 48.8735 11.154 48.3155 13.386 47.0945C18.525 44.2865 24.294 41.7005 31.383 39.0365C41.58 35.2055 58.353 30.7085 67.899 29.2475L68.892 29.0945L68.742 28.8545C67.866 27.4985 67.272 26.6615 66.552 25.7735C64.461 23.1845 61.926 21.0725 58.821 19.3355C54.555 16.9445 49.02 15.0875 42.021 13.6955C39.8363 13.2847 37.645 12.9096 35.448 12.5705C31.518 11.9678 27.5939 11.3277 23.676 10.6505C22.401 10.4255 20.496 10.1075 19.233 9.83448C18.259 9.62753 17.2967 9.36917 16.35 9.06048C15.546 8.74548 14.415 8.43948 14.172 7.51548ZM16.98 10.2425C16.989 10.2365 17.169 10.2935 17.391 10.3685C17.799 10.5065 18.339 10.6685 18.969 10.8455C19.407 10.9655 19.89 11.0975 20.406 11.2265C21.06 11.3945 21.603 11.5385 21.609 11.5475C21.681 11.6285 22.782 15.1415 23.157 16.4885C23.301 17.0045 23.409 17.4335 23.4 17.4425C23.2955 17.3124 23.205 17.1716 23.13 17.0225C21.858 14.7845 19.839 12.5075 17.508 10.6745C17.3268 10.537 17.1507 10.3929 16.98 10.2425ZM22.35 11.7245C22.5474 11.7433 22.7429 11.7774 22.935 11.8265C24.792 12.2345 28.11 12.8765 30.24 13.2365C30.597 13.2965 30.888 13.3565 30.888 13.3775C30.8011 13.4555 30.7017 13.5184 30.594 13.5635C30.237 13.7435 28.788 14.6105 28.305 14.9345C27.2017 15.6591 26.1674 16.4835 25.215 17.3975C25.0229 17.5945 24.8259 17.7865 24.624 17.9735C24.5725 17.8398 24.5314 17.7024 24.501 17.5625C23.9916 15.7352 23.3396 13.9507 22.551 12.2255C22.4718 12.0641 22.4007 11.8989 22.338 11.7305C22.338 11.7275 22.338 11.7245 22.35 11.7245ZM31.791 13.5185C31.851 13.5395 31.971 13.9085 32.178 14.7305C32.6562 16.6688 32.8112 18.6727 32.637 20.6615L32.601 20.7755L32.04 20.5955C30.486 20.1087 28.9238 19.6486 27.354 19.2155C26.7868 19.0703 26.2262 18.9001 25.674 18.7055C25.674 18.6395 27.021 17.2925 27.6 16.7795C28.707 15.8015 31.686 13.4855 31.791 13.5185ZM32.541 13.6265C32.574 13.5965 37.053 14.3705 39.087 14.7605C40.605 15.0515 42.798 15.5105 42.93 15.5675C42.996 15.5915 42.768 15.7175 42.039 16.0475C39.159 17.3435 37.023 18.5075 34.899 19.9265C34.341 20.2985 33.876 20.6045 33.867 20.6045C33.855 20.6045 33.849 20.2925 33.849 19.9145C33.849 17.8445 33.432 15.7535 32.676 13.9865C32.6199 13.8709 32.5747 13.7504 32.541 13.6265ZM44.121 15.9185C44.154 15.9515 44.007 16.8365 43.881 17.3585C43.485 18.9785 42.435 21.3905 41.139 23.6555C41.0029 23.911 40.8506 24.1575 40.683 24.3935C40.4549 24.2968 40.2351 24.1814 40.026 24.0485C38.76 23.3075 37.326 22.6085 35.751 21.9575C35.4691 21.8467 35.191 21.7266 34.917 21.5975C34.845 21.5315 38.346 19.2125 40.203 18.0995C41.688 17.2085 44.079 15.8765 44.121 15.9185ZM44.949 16.0475C45.048 16.0475 47.034 16.5875 48.06 16.8965C50.619 17.6615 53.571 18.7385 55.485 19.6085L56.28 19.9685L55.719 20.0975C51.036 21.1775 47.019 22.4165 43.155 23.9855C42.834 24.1175 42.555 24.2255 42.534 24.2255C42.5885 24.0328 42.6639 23.8467 42.759 23.6705C43.923 21.2015 44.673 18.6095 44.868 16.4105C44.886 16.2095 44.922 16.0475 44.949 16.0475ZM25.209 20.5835C25.239 20.5535 26.751 20.9075 27.576 21.1385C28.815 21.4865 31.452 22.3685 31.452 22.4375C31.452 22.4495 31.161 22.7045 30.807 23.0015C29.2751 24.2895 27.7911 25.6334 26.358 27.0305C26.0615 27.3276 25.7532 27.6129 25.434 27.8855C25.413 27.8855 25.404 27.8165 25.416 27.7355C25.665 25.9025 25.611 23.5505 25.266 21.1565C25.232 20.9682 25.2119 20.7777 25.206 20.5865L25.209 20.5835ZM57.039 20.6135C57.06 20.6375 56.337 21.7685 55.887 22.4135C55.227 23.3555 54.276 24.5915 52.104 27.3245L49.242 30.9305C48.9806 31.2696 48.7116 31.6026 48.435 31.9295C48.426 31.9295 48.285 31.7315 48.126 31.4915C46.8998 29.6616 45.4143 28.0194 43.716 26.6165C43.45 26.3936 43.1799 26.1756 42.906 25.9625C42.8251 25.9081 42.7506 25.8447 42.684 25.7735C42.684 25.7435 44.535 24.9515 45.948 24.3755C48.6855 23.2752 51.4657 22.2844 54.282 21.4055C55.608 21.0005 57.018 20.5955 57.039 20.6135ZM57.873 20.8325C58.0916 20.9064 58.3002 21.0072 58.494 21.1325C61.1392 22.6479 63.5859 24.486 65.778 26.6045C66.36 27.1745 67.779 28.6535 67.758 28.6655L66.669 28.7525C62.079 29.0975 56.211 30.0725 50.559 31.4315C50.175 31.5215 49.845 31.5995 49.821 31.5995C49.8 31.5995 50.22 31.1795 50.754 30.6635C54.075 27.4745 55.587 25.4615 57.369 21.8615C57.633 21.3275 57.858 20.8625 57.867 20.8355H57.873V20.8325ZM33.609 23.3225C33.762 23.3525 35.178 24.0125 36.246 24.5465C37.221 25.0355 38.7 25.8245 38.775 25.8935C38.784 25.9025 38.265 26.1725 37.617 26.4965C35.6946 27.451 33.8148 28.489 31.983 29.6075C31.458 29.9285 31.023 30.1895 31.008 30.1895C30.963 30.1895 30.978 30.1505 31.272 29.6165C32.2851 27.7269 33.0302 25.7055 33.486 23.6105C33.528 23.4245 33.576 23.3105 33.609 23.3195V23.3225ZM32.184 23.5745C32.214 23.6045 31.848 24.9545 31.614 25.6745C30.9801 27.5687 30.1401 29.3877 29.109 31.0985L28.839 31.5395L28.23 30.9485C27.6374 30.3445 26.953 29.8383 26.202 29.4485C26.0162 29.3645 25.8393 29.262 25.674 29.1425C25.674 29.0525 27.534 27.3635 28.968 26.1485C29.997 25.2785 32.16 23.5475 32.184 23.5745ZM40.848 27.1385L41.379 27.4835C42.6 28.2755 44.043 29.3405 45.144 30.2555C45.762 30.7715 46.959 31.8455 47.205 32.1035L47.337 32.2445L46.455 32.4905C41.9453 33.7205 37.4911 35.1458 33.105 36.7625C32.7884 36.8838 32.4682 36.9959 32.145 37.0985C32.082 37.0985 32.019 37.1555 33.144 36.1205C36.024 33.4715 38.565 30.5525 40.464 27.7145L40.848 27.1385ZM38.571 27.7085C38.598 27.7355 37.095 29.8385 36.204 31.0265C35.136 32.4455 33.234 34.8215 31.926 36.3665C31.592 36.7738 31.2459 37.171 30.888 37.5575C30.858 37.5665 30.843 37.4075 30.84 37.1585C30.84 35.8385 30.504 34.4285 29.916 33.2345C29.667 32.7305 29.625 32.6105 29.676 32.5625C29.88 32.3765 33.057 30.5645 35.058 29.4935C36.435 28.7555 38.547 27.6815 38.571 27.7085ZM24.801 31.0835C25.6728 31.5012 26.4908 32.023 27.237 32.6375C27.261 32.6525 26.976 32.8865 26.607 33.1535C25.572 33.9005 23.997 35.0855 23.088 35.8115C22.128 36.5765 22.095 36.6005 22.203 36.4325C22.923 35.3315 23.283 34.7105 23.661 33.9125C24 33.2045 24.333 32.3645 24.573 31.6325C24.6225 31.4391 24.7004 31.2541 24.804 31.0835H24.801ZM28.47 33.9635C28.521 33.9545 28.59 34.0475 28.887 34.4885C29.508 35.4185 29.985 36.6545 30.108 37.6625L30.132 37.8815L28.641 38.4575C26.3507 39.3378 24.084 40.2781 21.843 41.2775C21.378 41.4935 20.559 41.8835 20.022 42.1535C19.485 42.4235 19.047 42.6335 19.047 42.6215C19.047 42.6095 19.383 42.3545 19.797 42.0575C23.058 39.6875 25.872 37.0955 27.993 34.5005C28.218 34.2245 28.425 33.9845 28.452 33.9665C28.4576 33.9633 28.4637 33.9613 28.47 33.9605V33.9635ZM26.778 34.3835C26.823 34.4255 25.575 35.8355 24.735 36.6935C22.7057 38.7787 20.4335 40.6128 17.967 42.1565C17.643 42.3635 17.349 42.5465 17.307 42.5705C17.238 42.6125 17.331 42.5045 18.465 41.2685C19.179 40.4915 19.725 39.8465 20.349 39.0395C20.6367 38.6232 21.0062 38.27 21.435 38.0015C23.046 36.8375 26.736 34.3385 26.778 34.3805V34.3835ZM29.775 0.000475819C29.535 -0.0295242 25.662 1.36548 23.175 2.37348C19.806 3.74448 17.187 5.05548 15.573 6.18948C14.973 6.60948 14.217 7.36848 14.109 7.65948C14.0665 7.77781 14.0451 7.90273 14.046 8.02848L15.51 9.40848L18.984 10.5185L27.261 12.0005L36.72 13.6265L36.816 12.8165L36.732 12.8015L35.487 12.6035L35.232 12.1595C33.9463 9.89116 32.768 7.56358 31.701 5.18448C31.0784 3.75465 30.5473 2.28669 30.111 0.789476C29.907 0.0604759 29.886 0.0154758 29.775 0.000475819ZM29.592 0.558476H29.607C29.616 0.567476 29.658 0.873476 29.703 1.23348C29.889 2.75748 30.231 4.23348 30.765 5.82348C31.167 7.02348 31.173 6.95448 30.693 6.81948C29.583 6.51048 24.597 5.65548 20.991 5.15448C20.633 5.10881 20.2759 5.0558 19.92 4.99548C19.875 4.95048 22.521 3.56448 23.694 3.01548C25.197 2.31948 29.295 0.615476 29.592 0.558476ZM19.086 5.44248L19.509 5.58648C21.825 6.37248 27.627 7.48248 30.834 7.74648C31.194 7.77648 31.5 7.80948 31.509 7.81848C31.518 7.82748 31.209 7.99248 30.825 8.18448C29.28 8.95848 27.576 9.90348 26.397 10.6415C26.052 10.8575 25.737 11.0315 25.692 11.0285C25.5216 11.0045 25.3515 10.9775 25.182 10.9475L24.75 10.8785L23.655 9.81348C21.732 7.95348 20.232 6.51348 19.65 5.97348L19.086 5.44248ZM18.657 5.78448L20.19 7.69848C21.036 8.74848 21.882 9.79548 22.068 10.0205C22.257 10.2455 22.401 10.4345 22.392 10.4405C22.35 10.4735 20.172 10.0505 19.017 9.78348C18.2042 9.61071 17.4002 9.39846 16.608 9.14748L16.008 8.95548L16.011 8.80848C16.02 8.07348 16.947 6.98748 18.519 5.88048L18.657 5.78448ZM31.713 8.39148C31.758 8.39448 31.809 8.48748 31.944 8.78448C32.316 9.60048 33.474 11.8085 33.753 12.2345C33.843 12.3755 33.993 12.3845 32.454 12.1355C28.764 11.5415 27.567 11.3405 27.567 11.3165C27.6422 11.2513 27.726 11.1967 27.816 11.1545C28.9931 10.494 30.1051 9.72354 31.137 8.85348L31.662 8.41248C31.68 8.39748 31.698 8.38848 31.713 8.39148ZM44.64 33.6155L30.216 38.3195L17.676 43.8575L14.166 44.7875C12.3061 46.546 10.3766 48.2293 8.38202 49.8335C7.34578 50.6907 6.38891 51.6395 5.52302 52.6685C4.52702 53.9105 3.74702 55.2305 3.41102 56.2475C2.81102 58.0775 3.10202 59.9315 4.26602 61.6415C5.75102 63.8255 8.70602 66.0455 12.141 67.5575C13.896 68.3255 16.851 69.3215 19.071 69.8795C22.77 70.8155 29.913 71.8295 33.849 71.9795C34.647 72.0095 35.709 72.0095 35.76 71.9735C35.844 71.9165 36.459 70.7585 37.17 69.3035C39.588 64.3655 41.337 59.7335 42.279 55.7795C42.849 53.3825 43.293 50.1905 43.581 46.4045C43.6696 44.4718 43.6856 42.5364 43.629 40.6025C43.5542 38.8866 43.3708 37.1772 43.08 35.4845C43.042 35.3377 43.0298 35.1854 43.044 35.0345C43.086 35.0045 43.221 34.9595 44.994 34.4435L44.64 33.6155ZM41.34 35.5505C41.475 35.5505 41.82 38.8925 41.913 41.0105C41.931 41.4635 41.928 41.7515 41.901 41.7515C41.817 41.7515 40.056 40.7165 38.805 39.9335C37.6244 39.1898 36.4621 38.4176 35.319 37.6175C35.214 37.5335 35.226 37.5305 36.117 37.2245C37.632 36.7025 41.229 35.5505 41.343 35.5505H41.34ZM33.996 37.9595C34.086 37.9595 34.341 38.1005 34.941 38.4755C37.191 39.8855 40.239 41.5805 41.541 42.1505C41.949 42.3305 41.994 42.2585 41.061 42.8915C39.075 44.2415 36.603 45.5675 33.57 46.9175C33.2424 47.0673 32.9113 47.2094 32.577 47.3435C32.5992 47.1396 32.6424 46.9385 32.706 46.7435C33.441 44.0285 33.855 41.2835 33.867 39.0815C33.873 37.9955 33.873 37.9895 33.978 37.9625H33.996V37.9595ZM32.484 38.5385C32.547 38.6045 32.502 41.0405 32.424 41.7065C32.1956 43.5815 31.7754 45.4282 31.17 47.2175C31.128 47.2685 29.637 45.8135 29.142 45.2375C28.3582 44.3486 27.6844 43.3685 27.135 42.3185C26.889 41.8325 26.493 40.8665 26.529 40.8395C26.697 40.7195 32.442 38.4995 32.484 38.5385ZM25.359 41.3465C25.371 41.3465 25.383 41.3495 25.389 41.3585C25.4555 41.4847 25.5117 41.6162 25.557 41.7515C26.0198 42.9034 26.6266 43.9921 27.363 44.9915C28.2514 46.1678 29.2755 47.2352 30.414 48.1715C30.483 48.2315 30.504 48.2195 28.728 48.8915C26.4544 49.7488 24.1597 50.549 21.846 51.2915C20.865 51.6095 20.034 51.8765 20.001 51.8915C19.902 51.9245 19.932 51.8645 20.22 51.4175C21.501 49.4195 23.439 45.5075 24.525 42.7415C24.711 42.2615 24.891 41.7815 24.924 41.6735C24.969 41.5175 25.017 41.4635 25.164 41.3975C25.2243 41.3659 25.291 41.3484 25.359 41.3465ZM23.175 42.2465C23.205 42.2735 22.653 43.4405 22.107 44.4995C20.9496 46.7379 19.6954 48.925 18.348 51.0545L17.802 51.9185C17.748 51.9995 17.724 51.9725 17.556 51.6365C17.1638 50.836 16.8813 49.9864 16.716 49.1105C16.5618 48.0313 16.582 46.9343 16.776 45.8615C16.917 45.1805 16.911 45.1955 17.232 45.0335C18.618 44.3225 23.13 42.2075 23.175 42.2465ZM41.979 43.0115V43.4735C41.9481 46.4804 41.6924 49.4807 41.214 52.4495C39.2358 51.8786 37.3263 51.0918 35.52 50.1035C34.458 49.5215 32.925 48.5825 32.97 48.5375C32.979 48.5255 33.432 48.2885 33.972 48.0065C36.114 46.8965 38.157 45.6965 39.936 44.5085C40.602 44.0645 41.601 43.3415 41.823 43.1465L41.979 43.0115ZM14.943 46.2305C14.988 46.2305 14.976 46.3145 14.907 46.7135C14.8475 47.1013 14.8065 47.4918 14.784 47.8835C14.694 49.4795 14.955 50.6555 15.744 52.2635C15.966 52.7135 16.14 53.0855 16.131 53.0915C16.05 53.1605 8.84102 55.2695 6.57302 55.8905L5.26802 56.2505C5.18702 56.2745 5.18102 56.2565 5.20802 56.0705C5.45702 54.4715 6.67802 52.3745 8.38202 50.6105C9.51602 49.4405 10.422 48.7445 11.967 47.8655C12.9489 47.3023 13.9411 46.7572 14.943 46.2305ZM31.95 49.2755C31.956 49.2695 32.223 49.4105 32.541 49.5965C34.872 50.9435 38.121 52.2065 40.89 52.8395L41.142 52.8995L40.797 53.0885C39.351 53.8925 34.584 55.8755 29.715 57.6995C29.2012 57.8914 28.6882 58.0854 28.176 58.2815C28.0981 58.3197 28.0154 58.3469 27.93 58.3625C27.93 58.3505 28.131 57.9665 28.377 57.5045C29.745 54.9485 31.107 51.8435 31.809 49.6895C31.878 49.4705 31.941 49.2845 31.95 49.2755ZM30.216 49.8455C30.1641 50.0184 30.1009 50.1878 30.027 50.3525C28.9203 52.9662 27.657 55.5108 26.244 57.9725C26.0041 58.4124 25.752 58.8456 25.488 59.2715C25.473 59.2715 25.146 59.0735 24.756 58.8365C22.446 57.4205 20.4 55.6805 19.056 53.9855L18.864 53.7455L19.86 53.4725C23.1249 52.5991 26.323 51.4933 29.43 50.1635C29.856 49.9835 30.21 49.8365 30.216 49.8455ZM40.986 53.6045C40.989 53.6045 40.992 53.6075 40.992 53.6135C40.992 53.8535 40.443 56.0975 39.984 57.7235C39.6 59.0825 39.276 60.1475 38.679 62.0345C38.5267 62.5436 38.3587 63.0478 38.175 63.5465C35.0956 63.0201 32.0793 62.1745 29.175 61.0235C28.5239 60.7687 27.8843 60.4854 27.258 60.1745C27.24 60.1535 27.897 59.8445 28.716 59.4845C33.681 57.3215 38.823 54.8555 40.581 53.7965C40.7038 53.7094 40.8409 53.6445 40.986 53.6045ZM16.125 54.4535C16.152 54.4805 14.763 56.4665 12.825 59.1815L11.064 61.6505C10.773 62.0675 10.329 62.7245 10.077 63.1145L9.61802 63.8225L9.13202 63.4115C8.40441 62.773 7.72552 62.0811 7.10102 61.3415C6.16502 60.1745 5.53202 58.9475 5.28002 57.8195C5.16602 57.2975 5.16002 57.0335 5.27102 57.0005C7.20244 56.5346 9.13647 56.0796 11.073 55.6355L14.973 54.7205C15.6 54.5705 16.119 54.4505 16.125 54.4535ZM17.52 54.9875L17.871 55.3805C19.337 57.0448 21.0659 58.4576 22.989 59.5625C23.1987 59.6666 23.3951 59.7955 23.574 59.9465C19.2566 61.5117 14.9264 63.0418 10.584 64.5365C10.5096 64.4921 10.4376 64.4441 10.368 64.3925L10.167 64.2485L10.482 63.7925C11.502 62.3135 12.786 60.6875 15.597 57.3065L17.52 54.9875ZM26.22 61.2065C26.229 61.1975 26.715 61.3685 27.306 61.5905C28.725 62.1215 29.838 62.4665 31.347 62.8445C33.198 63.3095 35.877 63.7745 37.461 63.9065C37.701 63.9245 37.827 63.9545 37.791 63.9785C37.716 64.0265 36.111 64.5605 34.932 64.9325C30.3089 66.3388 25.6727 67.7018 21.024 69.0215C20.919 69.0425 20.553 68.9465 20.553 68.9015C20.553 68.8745 20.814 68.5445 21.132 68.1635C22.7183 66.264 24.1966 64.2768 25.56 62.2115C25.7788 61.8757 25.9988 61.5407 26.22 61.2065ZM24.294 61.2605C24.309 61.2755 23.535 62.5145 22.176 64.6565C21.6 65.5595 20.949 66.5915 20.727 66.9425C20.502 67.2965 20.175 67.8365 20.001 68.1425L19.68 68.6975L19.518 68.6555C19.128 68.5505 16.371 67.5755 15.645 67.2875C14.7784 66.9449 13.9312 66.5554 13.107 66.1205C12.24 65.6525 11.142 64.9565 11.226 64.9295L14.541 64.0235C19.317 62.7215 21.96 61.9745 23.691 61.4315C24.018 61.3325 24.288 61.2545 24.291 61.2605H24.294ZM37.863 64.4435H37.881C37.926 64.5575 36.156 69.4535 35.511 71.0075C35.364 71.3555 35.313 71.4425 35.235 71.4365C33.7995 71.2552 32.3664 71.0551 30.936 70.8365C28.218 70.4225 23.667 69.6275 22.518 69.3665L22.251 69.3065L23.88 68.9405C27.372 68.1545 29.049 67.7315 30.75 67.2095C32.9426 66.5347 35.0857 65.7087 37.164 64.7375C37.3914 64.6267 37.6248 64.5286 37.863 64.4435Z" fill="#F8F8F8"/>
</g>
<defs>
<clipPath id="clip0_838:353">
<rect width="72" height="72" fill="white"/>
</clipPath>
</defs>
</svg>
