<svg width="27" height="38" viewBox="0 0 27 38" fill="none" xmlns="http://www.w3.org/2000/svg">
<path d="M13.5848 0C6.46034 0 0.6875 5.68817 0.6875 12.7339C0.6875 24.9167 13.5848 37.4022 13.5848 37.4022C13.5848 37.4022 26.4821 24.9141 26.4821 12.7339C26.4821 5.69072 20.7093 0 13.5848 0ZM13.5848 19.7797C11.7377 19.7797 9.96625 19.0538 8.66014 17.7616C7.35403 16.4695 6.62027 14.717 6.62027 12.8896C6.62027 11.0622 7.35403 9.30971 8.66014 8.01756C9.96625 6.72542 11.7377 5.9995 13.5848 5.9995C15.4319 5.9995 17.2034 6.72542 18.5095 8.01756C19.8156 9.30971 20.5494 11.0622 20.5494 12.8896C20.5494 14.717 19.8156 16.4695 18.5095 17.7616C17.2034 19.0538 15.4319 19.7797 13.5848 19.7797Z" fill="#004B6D"/>
</svg>
