<svg width="400" height="400" viewBox="0 0 400 400" fill="none" xmlns="http://www.w3.org/2000/svg">
<path d="M35.2285 49.2753C21.9993 52.3968 8.76997 63.3965 3.12151 75.8825C0.148641 82.4229 0 85.2471 0 177.703C0 268.525 0.148644 273.133 2.97287 279.078C10.5537 295.875 25.4181 305.983 44.5931 307.469L54.9981 308.213V291.416H47.8632C37.3095 291.416 26.0126 285.321 20.6615 276.849L16.3508 270.011V178.149C16.3508 77.2203 15.9049 82.5715 25.5667 73.3556C35.8231 63.5451 26.9045 63.991 202.007 64.2883C377.703 64.7343 363.88 63.991 374.285 74.5447C383.798 84.3552 383.649 82.2742 383.203 180.082L382.757 268.673L378.298 275.957C372.798 284.875 361.353 291.416 351.245 291.416H344.853V298.105C344.853 301.821 344.705 305.24 344.556 305.834C343.813 307.915 354.366 308.064 362.69 306.28C373.69 303.753 384.838 296.321 390.784 287.551C400 273.43 400 274.47 399.554 174.582L399.108 84.0579L395.689 76.6258C391.23 66.9639 380.528 56.1129 371.014 51.8023L363.434 48.3835L202.155 48.0862C111.334 48.0862 38.4987 48.5321 35.2285 49.2753V49.2753Z" fill="white"/>
<path d="M289.409 123.597C280.639 130.286 280.937 126.273 280.937 233.742C280.937 330.063 281.085 332.441 283.909 337.198C287.774 343.441 298.625 348.495 305.314 347.306C312.152 345.968 319.138 341.211 322.111 335.712C324.638 331.104 324.786 324.266 324.786 232.702V134.597L321.368 129.691C316.611 123.151 310.814 120.476 301.449 120.476C295.801 120.624 292.382 121.516 289.409 123.597V123.597ZM154.292 177.109C150.873 178.893 147.455 182.311 145.671 185.879C142.847 191.527 142.698 194.5 142.698 261.241C142.698 326.198 142.847 331.252 145.522 336.009C153.846 351.914 175.994 351.914 184.021 336.009L187.44 329.32L186.994 259.457C186.548 192.865 186.399 189.298 183.575 184.69C180.305 179.19 170.643 173.987 164.103 173.987C161.724 174.136 157.265 175.474 154.292 177.109ZM229.357 208.324C221.776 209.81 217.02 213.824 213.898 220.959C211.074 227.053 210.925 230.62 211.371 279.97C211.817 329.617 211.966 332.59 214.79 337.495C220.736 347.603 235.749 351.022 245.411 344.482C255.519 337.793 255.667 336.901 255.667 277.741C255.667 248.606 255.073 223.188 254.329 221.256C250.911 212.189 239.168 206.243 229.357 208.324V208.324ZM82.7946 257.376C74.6192 263.619 74.0246 266.592 74.1733 300.78C74.4706 335.86 74.9165 337.941 84.8756 344.63C91.7132 349.387 103.605 348.644 109.402 343.292C116.983 336.157 117.429 334.076 117.429 300.334C117.429 265.552 116.834 262.43 108.064 257.228C101.375 253.066 88.4431 253.214 82.7946 257.376V257.376Z" fill="white"/>
</svg>
