<svg width="105" height="101" viewBox="0 0 105 101" fill="none" xmlns="http://www.w3.org/2000/svg">
<path d="M26.1401 87.4049V41.4007C27.2326 36.0598 32.6463 25.1596 45.5615 24.2856V29.3837C41.5963 29.7884 33.1075 32.7582 30.8741 41.4007V58.3943H45.5615L54.301 78.4226L63.6476 58.3943H73.9651V87.4049H69.1098V59.6082L49.6885 101H45.5615L52.4803 84.249L42.7696 63.7352H30.8741V87.4049H26.1401Z" fill="#007AB2"/>
<path d="M70.445 49.0478C72.3891 49.0478 73.9651 47.4175 73.9651 45.4063C73.9651 43.3952 72.3891 41.7648 70.445 41.7648C68.5009 41.7648 66.9249 43.3952 66.9249 45.4063C66.9249 47.4175 68.5009 49.0478 70.445 49.0478Z" fill="#007AB2"/>
<path fill-rule="evenodd" clip-rule="evenodd" d="M104.277 0H0.169434V15.5175V31.5272V101H9.53652H46.7334H104.277V0ZM46.7334 101L100.346 93.7714L88.1945 3.64901L0.169434 15.5175V31.5272L9.53652 101H46.7334Z" fill="#007AB2"/>
</svg>
