<svg width="72" height="47" viewBox="0 0 72 47" fill="none" xmlns="http://www.w3.org/2000/svg">
<path d="M36 0L35.2802 0.24506L6.53542 11.0484L0 13.4654L3.80581 14.8326V37.404C2.43296 38.2991 1.50623 39.9319 1.50623 41.8408C1.50623 43.2091 1.99078 44.5214 2.85329 45.4889C3.7158 46.4564 4.88562 47 6.1054 47C7.32517 47 8.49499 46.4564 9.3575 45.4889C10.22 44.5214 10.7046 43.2091 10.7046 41.8408C10.7046 39.9319 9.77783 38.2991 8.40498 37.404V16.6125L13.0042 18.3021V31.5225C13.0042 33.6378 14.1539 35.3919 15.5199 36.6043C16.8859 37.8089 18.5829 38.6602 20.6204 39.4238C24.6998 40.9457 30.0763 41.8408 36 41.8408C41.9237 41.8408 47.3002 40.9483 51.3796 39.4212C53.4171 38.6602 55.1141 37.8089 56.4801 36.6017C57.8461 35.3919 58.9958 33.6378 58.9958 31.5225V18.3021L65.4646 15.8825L72 13.4654L65.4623 11.0458L36.7175 0.24506L36 0ZM36 5.40423L57.5586 13.4654L36 21.5266L14.4414 13.4654L36 5.40423ZM17.6033 20.0769L35.2825 26.6858L36 26.9283L36.7198 26.6832L54.3967 20.0743V31.5225C54.3967 31.5483 54.4059 31.8475 53.6769 32.4898C52.9502 33.1347 51.6464 33.9473 49.9401 34.587C46.5321 35.8588 41.5075 36.6817 36 36.6817C30.4925 36.6817 25.4679 35.8614 22.0576 34.5845C20.3559 33.9473 19.0498 33.1322 18.3231 32.4898C17.5918 31.8449 17.6033 31.5483 17.6033 31.5225V20.0743V20.0769Z" fill="#F8F8F8"/>
</svg>
