<svg width="40" height="28" viewBox="0 0 40 28" fill="none" xmlns="http://www.w3.org/2000/svg">
<path d="M31.0642 0.0263636H8.52118C4.09644 0.0263636 0.512207 3.60223 0.512207 8.0141V19.2542C0.512207 23.6661 4.09837 27.2439 8.52118 27.2439H31.0642C35.4889 27.2439 39.0731 23.6661 39.0731 19.2542V8.0141C39.0731 3.60223 35.487 0.0244141 31.0642 0.0244141V0.0263636ZM25.6482 14.1798L15.1042 19.1977C15.0399 19.2289 14.9688 19.2433 14.8975 19.2393C14.8262 19.2354 14.7571 19.2133 14.6966 19.1752C14.636 19.1371 14.586 19.0842 14.5512 19.0213C14.5164 18.9585 14.4979 18.8877 14.4975 18.8158V8.4701C14.4988 8.39775 14.5182 8.3269 14.5539 8.26416C14.5897 8.20143 14.6406 8.14884 14.7019 8.11129C14.7633 8.07375 14.833 8.05248 14.9047 8.04945C14.9764 8.04643 15.0477 8.06175 15.1119 8.09399L25.6579 13.4237C25.7281 13.459 25.7871 13.5136 25.8279 13.5812C25.8688 13.6488 25.8899 13.7266 25.8889 13.8058C25.8879 13.8849 25.8648 13.9622 25.8222 14.0287C25.7796 14.0952 25.7193 14.1482 25.6482 14.1817V14.1798Z" fill="#007AB2"/>
</svg>
