<svg width="31" height="31" viewBox="0 0 31 31" fill="none" xmlns="http://www.w3.org/2000/svg">
<path d="M25.7632 26.5299H21.2901V19.5107C21.2901 17.837 21.2551 15.686 18.951 15.686C16.6185 15.686 16.2631 17.5015 16.2631 19.3869V26.529H11.7843V12.0965H16.0864V14.0651H16.1441C16.7451 12.9282 18.2072 11.7326 20.3885 11.7326C24.9258 11.7326 25.7679 14.7201 25.7679 18.6044V26.529L25.7632 26.5299ZM6.72433 10.1241C6.38246 10.1242 6.04393 10.0569 5.72813 9.92599C5.41232 9.79508 5.12545 9.60315 4.88394 9.3612C4.64242 9.11924 4.45101 8.83202 4.32068 8.51598C4.19034 8.19994 4.12363 7.86129 4.12438 7.51942C4.12494 7.00487 4.27806 6.50203 4.56438 6.0745C4.8507 5.64696 5.25735 5.31392 5.73294 5.11748C6.20852 4.92104 6.73167 4.87003 7.23624 4.9709C7.74081 5.07177 8.20415 5.31998 8.56766 5.68415C8.93118 6.04833 9.17855 6.51211 9.2785 7.01687C9.37844 7.52162 9.32649 8.04468 9.12919 8.5199C8.93189 8.99513 8.59811 9.40118 8.17005 9.68672C7.74199 9.97226 7.23888 10.1245 6.72433 10.1241ZM8.96797 26.5299H4.47973V12.0974H8.96797V26.5299ZM28.0087 0.756348H2.23042C0.998962 0.756348 0 1.73074 0 2.93667V28.8199C0 30.0258 0.998962 31.0002 2.23042 31.0002H28.004C29.2336 31.0002 30.2429 30.0258 30.2429 28.8199V2.93667C30.2429 1.73074 29.2336 0.756348 28.004 0.756348H28.0087Z" fill="#007AB2"/>
</svg>
