<svg width="303" height="80" viewBox="0 0 303 80" fill="none" xmlns="http://www.w3.org/2000/svg">
<path d="M93.4787 51.9316H91.6706V36.3816H100.339V37.9876H93.4787V43.678H99.9242V45.284H93.4787V51.9316ZM112.72 46.0924C112.72 47.9927 112.241 49.4782 111.284 50.5489C110.326 51.6126 109.004 52.1444 107.316 52.1444C106.274 52.1444 105.349 51.8997 104.54 51.4105C103.732 50.9212 103.108 50.2192 102.668 49.3045C102.229 48.3898 102.009 47.3191 102.009 46.0924C102.009 44.1921 102.484 42.7136 103.434 41.6571C104.384 40.5935 105.703 40.0617 107.391 40.0617C109.022 40.0617 110.316 40.6041 111.273 41.689C112.237 42.7739 112.72 44.2417 112.72 46.0924ZM103.838 46.0924C103.838 47.5815 104.136 48.716 104.732 49.496C105.327 50.2759 106.203 50.6659 107.359 50.6659C108.515 50.6659 109.39 50.2795 109.986 49.5066C110.589 48.7266 110.89 47.5885 110.89 46.0924C110.89 44.6104 110.589 43.4865 109.986 42.7207C109.39 41.9478 108.508 41.5614 107.338 41.5614C106.182 41.5614 105.31 41.9407 104.721 42.6995C104.133 43.4582 103.838 44.5892 103.838 46.0924ZM121.143 40.0617C121.661 40.0617 122.125 40.1042 122.537 40.1893L122.292 41.8273C121.81 41.7209 121.384 41.6678 121.016 41.6678C120.073 41.6678 119.264 42.0507 118.591 42.8165C117.924 43.5823 117.591 44.536 117.591 45.6776V51.9316H115.825V40.2744H117.282L117.485 42.4336H117.57C118.002 41.6748 118.523 41.0899 119.133 40.6786C119.743 40.2673 120.413 40.0617 121.143 40.0617ZM134.598 44.1566L138.746 36.3816H140.703L135.513 45.9009V51.9316H133.683V45.986L128.504 36.3816H130.482L134.598 44.1566ZM152.648 46.0924C152.648 47.9927 152.169 49.4782 151.212 50.5489C150.255 51.6126 148.932 52.1444 147.244 52.1444C146.202 52.1444 145.277 51.8997 144.468 51.4105C143.66 50.9212 143.036 50.2192 142.596 49.3045C142.157 48.3898 141.937 47.3191 141.937 46.0924C141.937 44.1921 142.412 42.7136 143.362 41.6571C144.312 40.5935 145.631 40.0617 147.319 40.0617C148.95 40.0617 150.244 40.6041 151.201 41.689C152.165 42.7739 152.648 44.2417 152.648 46.0924ZM143.766 46.0924C143.766 47.5815 144.064 48.716 144.66 49.496C145.256 50.2759 146.131 50.6659 147.287 50.6659C148.443 50.6659 149.319 50.2795 149.914 49.5066C150.517 48.7266 150.818 47.5885 150.818 46.0924C150.818 44.6104 150.517 43.4865 149.914 42.7207C149.319 41.9478 148.436 41.5614 147.266 41.5614C146.11 41.5614 145.238 41.9407 144.649 42.6995C144.061 43.4582 143.766 44.5892 143.766 46.0924ZM157.413 40.2744V47.8367C157.413 48.7869 157.629 49.496 158.061 49.964C158.494 50.4319 159.171 50.6659 160.093 50.6659C161.313 50.6659 162.202 50.3327 162.763 49.6661C163.33 48.9996 163.614 47.9112 163.614 46.4008V40.2744H165.379V51.9316H163.922L163.667 50.3681H163.571C163.209 50.9425 162.706 51.3821 162.061 51.687C161.422 51.9919 160.692 52.1444 159.87 52.1444C158.451 52.1444 157.388 51.8076 156.679 51.1339C155.977 50.4603 155.626 49.3825 155.626 47.9005V40.2744H157.413ZM174.452 40.0617C174.969 40.0617 175.434 40.1042 175.845 40.1893L175.6 41.8273C175.118 41.7209 174.693 41.6678 174.324 41.6678C173.381 41.6678 172.573 42.0507 171.899 42.8165C171.233 43.5823 170.899 44.536 170.899 45.6776V51.9316H169.134V40.2744H170.591L170.793 42.4336H170.878C171.311 41.6748 171.832 41.0899 172.442 40.6786C173.051 40.2673 173.721 40.0617 174.452 40.0617ZM183.95 51.9316V36.3816H185.758V51.9316H183.95ZM197.745 51.9316V44.3906C197.745 43.4404 197.529 42.7314 197.096 42.2634C196.664 41.7954 195.986 41.5614 195.065 41.5614C193.845 41.5614 192.952 41.8911 192.384 42.5506C191.817 43.21 191.533 44.2984 191.533 45.8159V51.9316H189.768V40.2744H191.204L191.491 41.8698H191.576C191.938 41.2955 192.445 40.8523 193.097 40.5403C193.749 40.2212 194.476 40.0617 195.277 40.0617C196.681 40.0617 197.738 40.4021 198.447 41.0828C199.156 41.7564 199.511 42.8377 199.511 44.3268V51.9316H197.745ZM208.402 41.6465H205.435V51.9316H203.669V41.6465H201.585V40.8488L203.669 40.2106V39.5618C203.669 36.6971 204.921 35.2648 207.424 35.2648C208.041 35.2648 208.764 35.3889 209.594 35.6371L209.136 37.0517C208.456 36.8319 207.874 36.7219 207.392 36.7219C206.725 36.7219 206.233 36.9453 205.913 37.392C205.594 37.8316 205.435 38.5407 205.435 39.5193V40.2744H208.402V41.6465ZM220.591 46.0924C220.591 47.9927 220.113 49.4782 219.155 50.5489C218.198 51.6126 216.876 52.1444 215.188 52.1444C214.146 52.1444 213.221 51.8997 212.412 51.4105C211.604 50.9212 210.98 50.2192 210.54 49.3045C210.101 48.3898 209.881 47.3191 209.881 46.0924C209.881 44.1921 210.356 42.7136 211.306 41.6571C212.256 40.5935 213.575 40.0617 215.263 40.0617C216.894 40.0617 218.188 40.6041 219.145 41.689C220.109 42.7739 220.591 44.2417 220.591 46.0924ZM211.71 46.0924C211.71 47.5815 212.008 48.716 212.604 49.496C213.199 50.2759 214.075 50.6659 215.231 50.6659C216.387 50.6659 217.262 50.2795 217.858 49.5066C218.461 48.7266 218.762 47.5885 218.762 46.0924C218.762 44.6104 218.461 43.4865 217.858 42.7207C217.262 41.9478 216.379 41.5614 215.209 41.5614C214.054 41.5614 213.182 41.9407 212.593 42.6995C212.004 43.4582 211.71 44.5892 211.71 46.0924ZM229.015 40.0617C229.533 40.0617 229.997 40.1042 230.409 40.1893L230.164 41.8273C229.682 41.7209 229.256 41.6678 228.888 41.6678C227.944 41.6678 227.136 42.0507 226.463 42.8165C225.796 43.5823 225.463 44.536 225.463 45.6776V51.9316H223.697V40.2744H225.154L225.356 42.4336H225.441C225.874 41.6748 226.395 41.0899 227.005 40.6786C227.615 40.2673 228.285 40.0617 229.015 40.0617ZM247.448 51.9316V44.3481C247.448 43.4192 247.249 42.7243 246.852 42.2634C246.455 41.7954 245.838 41.5614 245.001 41.5614C243.902 41.5614 243.09 41.8769 242.566 42.508C242.041 43.1391 241.779 44.1105 241.779 45.4223V51.9316H240.013V44.3481C240.013 43.4192 239.814 42.7243 239.417 42.2634C239.02 41.7954 238.4 41.5614 237.556 41.5614C236.45 41.5614 235.638 41.8947 235.12 42.5612C234.61 43.2206 234.355 44.3055 234.355 45.8159V51.9316H232.589V40.2744H234.025L234.312 41.8698H234.397C234.73 41.3026 235.198 40.8594 235.801 40.5403C236.411 40.2212 237.092 40.0617 237.843 40.0617C239.666 40.0617 240.857 40.7211 241.417 42.04H241.502C241.849 41.4302 242.353 40.948 243.012 40.5935C243.672 40.239 244.423 40.0617 245.267 40.0617C246.586 40.0617 247.572 40.4021 248.224 41.0828C248.884 41.7564 249.213 42.8377 249.213 44.3268V51.9316H247.448ZM260.03 51.9316L259.679 50.2724H259.594C259.013 51.0028 258.431 51.4991 257.85 51.7615C257.275 52.0167 256.556 52.1444 255.691 52.1444C254.535 52.1444 253.627 51.8466 252.968 51.2509C252.315 50.6553 251.989 49.808 251.989 48.7089C251.989 46.3548 253.872 45.121 257.637 45.0075L259.615 44.9437V44.2204C259.615 43.3057 259.417 42.6321 259.02 42.1996C258.63 41.7599 258.002 41.5401 257.137 41.5401C256.166 41.5401 255.067 41.8379 253.84 42.4336L253.298 41.0828C253.872 40.7708 254.499 40.5261 255.18 40.3489C255.868 40.1716 256.556 40.083 257.244 40.083C258.633 40.083 259.661 40.3914 260.328 41.0083C261.002 41.6252 261.338 42.6144 261.338 43.9758V51.9316H260.03ZM256.042 50.6872C257.141 50.6872 258.002 50.3859 258.626 49.7831C259.257 49.1804 259.573 48.3366 259.573 47.2517V46.1988L257.807 46.2732C256.403 46.3228 255.389 46.5427 254.765 46.9326C254.148 47.3156 253.84 47.9147 253.84 48.7302C253.84 49.3683 254.031 49.854 254.414 50.1873C254.804 50.5206 255.347 50.6872 256.042 50.6872ZM268.752 50.6872C269.064 50.6872 269.365 50.6659 269.656 50.6234C269.947 50.5738 270.177 50.5241 270.347 50.4745V51.8253C270.156 51.9175 269.872 51.9919 269.496 52.0486C269.128 52.1125 268.794 52.1444 268.497 52.1444C266.242 52.1444 265.114 50.9567 265.114 48.5813V41.6465H263.444V40.7956L265.114 40.0617L265.859 37.5728H266.88V40.2744H270.262V41.6465H266.88V48.5068C266.88 49.2088 267.047 49.7477 267.38 50.1235C267.713 50.4993 268.17 50.6872 268.752 50.6872ZM274.453 51.9316H272.687V40.2744H274.453V51.9316ZM272.538 37.1155C272.538 36.7113 272.638 36.417 272.836 36.2327C273.035 36.0412 273.283 35.9455 273.581 35.9455C273.864 35.9455 274.109 36.0412 274.315 36.2327C274.52 36.4241 274.623 36.7184 274.623 37.1155C274.623 37.5126 274.52 37.8104 274.315 38.0089C274.109 38.2004 273.864 38.2961 273.581 38.2961C273.283 38.2961 273.035 38.2004 272.836 38.0089C272.638 37.8104 272.538 37.5126 272.538 37.1155ZM288.259 46.0924C288.259 47.9927 287.78 49.4782 286.823 50.5489C285.865 51.6126 284.543 52.1444 282.855 52.1444C281.813 52.1444 280.888 51.8997 280.079 51.4105C279.271 50.9212 278.647 50.2192 278.207 49.3045C277.768 48.3898 277.548 47.3191 277.548 46.0924C277.548 44.1921 278.023 42.7136 278.973 41.6571C279.923 40.5935 281.242 40.0617 282.93 40.0617C284.561 40.0617 285.855 40.6041 286.812 41.689C287.776 42.7739 288.259 44.2417 288.259 46.0924ZM279.377 46.0924C279.377 47.5815 279.675 48.716 280.271 49.496C280.866 50.2759 281.742 50.6659 282.898 50.6659C284.054 50.6659 284.929 50.2795 285.525 49.5066C286.128 48.7266 286.429 47.5885 286.429 46.0924C286.429 44.6104 286.128 43.4865 285.525 42.7207C284.929 41.9478 284.047 41.5614 282.877 41.5614C281.721 41.5614 280.849 41.9407 280.26 42.6995C279.672 43.4582 279.377 44.5892 279.377 46.0924ZM299.341 51.9316V44.3906C299.341 43.4404 299.125 42.7314 298.693 42.2634C298.26 41.7954 297.583 41.5614 296.661 41.5614C295.442 41.5614 294.548 41.8911 293.981 42.5506C293.414 43.21 293.13 44.2984 293.13 45.8159V51.9316H291.364V40.2744H292.8L293.087 41.8698H293.172C293.534 41.2955 294.041 40.8523 294.693 40.5403C295.346 40.2212 296.073 40.0617 296.874 40.0617C298.278 40.0617 299.334 40.4021 300.043 41.0828C300.752 41.7564 301.107 42.8377 301.107 44.3268V51.9316H299.341ZM91.6706 73.9316V58.3816H93.4787V72.2937H100.339V73.9316H91.6706ZM107.646 74.1444C105.923 74.1444 104.562 73.6196 103.562 72.5702C102.569 71.5208 102.073 70.0636 102.073 68.1988C102.073 66.3197 102.534 64.8271 103.455 63.7209C104.384 62.6148 105.629 62.0617 107.189 62.0617C108.649 62.0617 109.805 62.5439 110.656 63.5082C111.507 64.4655 111.932 65.7312 111.932 67.3053V68.4221H103.902C103.938 69.7906 104.282 70.8294 104.934 71.5385C105.593 72.2476 106.519 72.6021 107.71 72.6021C108.965 72.6021 110.206 72.3398 111.433 71.815V73.3892C110.809 73.6586 110.216 73.8501 109.656 73.9635C109.103 74.0841 108.433 74.1444 107.646 74.1444ZM107.167 63.5401C106.231 63.5401 105.483 63.845 104.923 64.4548C104.37 65.0646 104.044 65.9084 103.945 66.9862H110.039C110.039 65.873 109.791 65.0221 109.295 64.4336C108.798 63.8379 108.089 63.5401 107.167 63.5401ZM122.122 73.9316L121.771 72.2724H121.686C121.104 73.0028 120.523 73.4991 119.941 73.7615C119.367 74.0167 118.647 74.1444 117.782 74.1444C116.627 74.1444 115.719 73.8466 115.059 73.2509C114.407 72.6553 114.081 71.808 114.081 70.7089C114.081 68.3548 115.964 67.121 119.729 67.0075L121.707 66.9437V66.2204C121.707 65.3057 121.509 64.6321 121.111 64.1996C120.721 63.7599 120.094 63.5401 119.229 63.5401C118.257 63.5401 117.158 63.8379 115.932 64.4336L115.389 63.0828C115.964 62.7708 116.591 62.5261 117.272 62.3489C117.96 62.1716 118.647 62.083 119.335 62.083C120.725 62.083 121.753 62.3914 122.42 63.0083C123.093 63.6252 123.43 64.6144 123.43 65.9758V73.9316H122.122ZM118.133 72.6872C119.232 72.6872 120.094 72.3859 120.718 71.7831C121.349 71.1804 121.665 70.3366 121.665 69.2517V68.1988L119.899 68.2732C118.495 68.3228 117.481 68.5427 116.857 68.9326C116.24 69.3156 115.932 69.9147 115.932 70.7302C115.932 71.3683 116.123 71.854 116.506 72.1873C116.896 72.5206 117.438 72.6872 118.133 72.6872ZM132.396 62.0617C132.914 62.0617 133.378 62.1042 133.79 62.1893L133.545 63.8273C133.063 63.7209 132.637 63.6678 132.269 63.6678C131.326 63.6678 130.517 64.0507 129.844 64.8165C129.177 65.5823 128.844 66.536 128.844 67.6776V73.9316H127.078V62.2744H128.535L128.738 64.4336H128.823C129.255 63.6748 129.776 63.0899 130.386 62.6786C130.996 62.2673 131.666 62.0617 132.396 62.0617ZM143.947 73.9316V66.3906C143.947 65.4404 143.731 64.7314 143.298 64.2634C142.866 63.7954 142.189 63.5614 141.267 63.5614C140.047 63.5614 139.154 63.8911 138.587 64.5506C138.019 65.21 137.736 66.2984 137.736 67.8159V73.9316H135.97V62.2744H137.406L137.693 63.8698H137.778C138.14 63.2955 138.647 62.8523 139.299 62.5403C139.952 62.2212 140.678 62.0617 141.48 62.0617C142.884 62.0617 143.94 62.4021 144.649 63.0828C145.358 63.7564 145.713 64.8377 145.713 66.3268V73.9316H143.947ZM151.116 73.9316H149.35V62.2744H151.116V73.9316ZM149.202 59.1155C149.202 58.7113 149.301 58.417 149.499 58.2327C149.698 58.0412 149.946 57.9455 150.244 57.9455C150.527 57.9455 150.772 58.0412 150.978 58.2327C151.183 58.4241 151.286 58.7184 151.286 59.1155C151.286 59.5126 151.183 59.8104 150.978 60.0089C150.772 60.2004 150.527 60.2961 150.244 60.2961C149.946 60.2961 149.698 60.2004 149.499 60.0089C149.301 59.8104 149.202 59.5126 149.202 59.1155ZM162.837 73.9316V66.3906C162.837 65.4404 162.621 64.7314 162.188 64.2634C161.756 63.7954 161.079 63.5614 160.157 63.5614C158.937 63.5614 158.044 63.8911 157.476 64.5506C156.909 65.21 156.626 66.2984 156.626 67.8159V73.9316H154.86V62.2744H156.296L156.583 63.8698H156.668C157.03 63.2955 157.537 62.8523 158.189 62.5403C158.841 62.2212 159.568 62.0617 160.369 62.0617C161.773 62.0617 162.83 62.4021 163.539 63.0828C164.248 63.7564 164.603 64.8377 164.603 66.3268V73.9316H162.837ZM177.781 62.2744V63.3912L175.622 63.6465C175.82 63.8947 175.998 64.2208 176.154 64.625C176.31 65.0221 176.388 65.4724 176.388 65.9758C176.388 67.1174 175.998 68.0286 175.218 68.7093C174.438 69.39 173.367 69.7304 172.005 69.7304C171.658 69.7304 171.332 69.702 171.027 69.6453C170.275 70.0424 169.899 70.5423 169.899 71.145C169.899 71.4641 170.031 71.7016 170.293 71.8576C170.555 72.0065 171.006 72.081 171.644 72.081H173.707C174.969 72.081 175.937 72.3469 176.611 72.8787C177.292 73.4105 177.632 74.1834 177.632 75.1973C177.632 76.4879 177.114 77.4699 176.079 78.1436C175.044 78.8243 173.533 79.1646 171.548 79.1646C170.024 79.1646 168.846 78.881 168.017 78.3137C167.194 77.7465 166.783 76.9452 166.783 75.91C166.783 75.2009 167.01 74.5875 167.464 74.0699C167.918 73.5523 168.556 73.2013 169.378 73.0169C169.08 72.8822 168.829 72.673 168.623 72.3894C168.425 72.1058 168.325 71.776 168.325 71.4002C168.325 70.9748 168.439 70.6025 168.666 70.2834C168.893 69.9644 169.251 69.6559 169.74 69.3581C169.137 69.1099 168.644 68.688 168.262 68.0924C167.886 67.4968 167.698 66.8161 167.698 66.0503C167.698 64.7739 168.081 63.7918 168.846 63.104C169.612 62.4091 170.697 62.0617 172.101 62.0617C172.711 62.0617 173.26 62.1326 173.75 62.2744H177.781ZM168.485 75.8887C168.485 76.5198 168.751 76.9984 169.283 77.3246C169.814 77.6507 170.577 77.8138 171.569 77.8138C173.051 77.8138 174.147 77.5905 174.856 77.1438C175.572 76.7041 175.93 76.105 175.93 75.3462C175.93 74.7152 175.735 74.2755 175.345 74.0274C174.955 73.7863 174.221 73.6657 173.143 73.6657H171.027C170.226 73.6657 169.602 73.8572 169.155 74.2401C168.708 74.623 168.485 75.1725 168.485 75.8887ZM169.442 66.0077C169.442 66.8231 169.673 67.44 170.133 67.8584C170.594 68.2768 171.236 68.4859 172.059 68.4859C173.782 68.4859 174.643 67.6492 174.643 65.9758C174.643 64.2244 173.771 63.3487 172.027 63.3487C171.197 63.3487 170.559 63.572 170.112 64.0187C169.665 64.4655 169.442 65.1285 169.442 66.0077ZM194.873 69.7942C194.873 71.1627 194.377 72.2299 193.384 72.9957C192.391 73.7615 191.044 74.1444 189.342 74.1444C187.499 74.1444 186.081 73.9068 185.088 73.4317V71.6874C185.726 71.9569 186.421 72.1696 187.173 72.3256C187.924 72.4816 188.669 72.5596 189.406 72.5596C190.612 72.5596 191.519 72.3327 192.129 71.8789C192.739 71.418 193.044 70.7798 193.044 69.9644C193.044 69.4255 192.934 68.9858 192.714 68.6455C192.501 68.298 192.14 67.9789 191.629 67.6882C191.126 67.3975 190.356 67.0678 189.321 66.6991C187.875 66.1814 186.839 65.5681 186.215 64.859C185.598 64.1499 185.29 63.2246 185.29 62.083C185.29 60.8846 185.74 59.9309 186.641 59.2218C187.541 58.5128 188.733 58.1582 190.215 58.1582C191.76 58.1582 193.182 58.4419 194.48 59.0091L193.916 60.5833C192.632 60.0444 191.384 59.7749 190.172 59.7749C189.215 59.7749 188.467 59.9806 187.928 60.3918C187.389 60.8031 187.119 61.3739 187.119 62.1042C187.119 62.6431 187.219 63.0863 187.417 63.4338C187.616 63.7741 187.949 64.0897 188.417 64.3804C188.892 64.664 189.615 64.9795 190.587 65.327C192.218 65.9084 193.338 66.5324 193.948 67.199C194.565 67.8655 194.873 68.7306 194.873 69.7942ZM207.849 68.0924C207.849 69.9927 207.371 71.4782 206.413 72.5489C205.456 73.6126 204.134 74.1444 202.446 74.1444C201.404 74.1444 200.478 73.8997 199.67 73.4105C198.862 72.9212 198.238 72.2192 197.798 71.3045C197.358 70.3898 197.139 69.3191 197.139 68.0924C197.139 66.1921 197.614 64.7136 198.564 63.6571C199.514 62.5935 200.833 62.0617 202.521 62.0617C204.151 62.0617 205.445 62.6041 206.403 63.689C207.367 64.7739 207.849 66.2417 207.849 68.0924ZM198.968 68.0924C198.968 69.5815 199.266 70.716 199.862 71.496C200.457 72.2759 201.333 72.6659 202.489 72.6659C203.644 72.6659 204.52 72.2795 205.116 71.5066C205.718 70.7266 206.02 69.5885 206.02 68.0924C206.02 66.6104 205.718 65.4865 205.116 64.7207C204.52 63.9478 203.637 63.5614 202.467 63.5614C201.312 63.5614 200.439 63.9407 199.851 64.6995C199.262 65.4582 198.968 66.5892 198.968 68.0924ZM212.721 73.9316H210.955V57.3818H212.721V73.9316ZM218.124 62.2744V69.8367C218.124 70.7869 218.34 71.496 218.773 71.964C219.205 72.4319 219.882 72.6659 220.804 72.6659C222.024 72.6659 222.914 72.3327 223.474 71.6661C224.041 70.9996 224.325 69.9112 224.325 68.4008V62.2744H226.09V73.9316H224.633L224.378 72.3681H224.282C223.92 72.9425 223.417 73.3821 222.772 73.687C222.134 73.9919 221.403 74.1444 220.581 74.1444C219.163 74.1444 218.099 73.8076 217.39 73.1339C216.688 72.4603 216.337 71.3825 216.337 69.9005V62.2744H218.124ZM233.61 72.6872C233.922 72.6872 234.223 72.6659 234.514 72.6234C234.805 72.5738 235.035 72.5241 235.205 72.4745V73.8253C235.014 73.9175 234.73 73.9919 234.355 74.0486C233.986 74.1125 233.653 74.1444 233.355 74.1444C231.1 74.1444 229.972 72.9567 229.972 70.5813V63.6465H228.303V62.7956L229.972 62.0617L230.717 59.5728H231.738V62.2744H235.12V63.6465H231.738V70.5068C231.738 71.2088 231.905 71.7477 232.238 72.1235C232.571 72.4993 233.029 72.6872 233.61 72.6872ZM239.311 73.9316H237.545V62.2744H239.311V73.9316ZM237.396 59.1155C237.396 58.7113 237.496 58.417 237.694 58.2327C237.893 58.0412 238.141 57.9455 238.439 57.9455C238.722 57.9455 238.967 58.0412 239.173 58.2327C239.378 58.4241 239.481 58.7184 239.481 59.1155C239.481 59.5126 239.378 59.8104 239.173 60.0089C238.967 60.2004 238.722 60.2961 238.439 60.2961C238.141 60.2961 237.893 60.2004 237.694 60.0089C237.496 59.8104 237.396 59.5126 237.396 59.1155ZM253.117 68.0924C253.117 69.9927 252.638 71.4782 251.681 72.5489C250.724 73.6126 249.401 74.1444 247.714 74.1444C246.671 74.1444 245.746 73.8997 244.938 73.4105C244.129 72.9212 243.505 72.2192 243.066 71.3045C242.626 70.3898 242.406 69.3191 242.406 68.0924C242.406 66.1921 242.881 64.7136 243.831 63.6571C244.782 62.5935 246.1 62.0617 247.788 62.0617C249.419 62.0617 250.713 62.6041 251.67 63.689C252.635 64.7739 253.117 66.2417 253.117 68.0924ZM244.236 68.0924C244.236 69.5815 244.533 70.716 245.129 71.496C245.725 72.2759 246.6 72.6659 247.756 72.6659C248.912 72.6659 249.788 72.2795 250.383 71.5066C250.986 70.7266 251.287 69.5885 251.287 68.0924C251.287 66.6104 250.986 65.4865 250.383 64.7207C249.788 63.9478 248.905 63.5614 247.735 63.5614C246.579 63.5614 245.707 63.9407 245.118 64.6995C244.53 65.4582 244.236 66.5892 244.236 68.0924ZM264.2 73.9316V66.3906C264.2 65.4404 263.983 64.7314 263.551 64.2634C263.118 63.7954 262.441 63.5614 261.519 63.5614C260.3 63.5614 259.406 63.8911 258.839 64.5506C258.272 65.21 257.988 66.2984 257.988 67.8159V73.9316H256.222V62.2744H257.658L257.946 63.8698H258.031C258.392 63.2955 258.899 62.8523 259.552 62.5403C260.204 62.2212 260.931 62.0617 261.732 62.0617C263.136 62.0617 264.192 62.4021 264.902 63.0828C265.611 63.7564 265.965 64.8377 265.965 66.3268V73.9316H264.2Z" fill="white"/>
<path d="M20.0674 67.5368V31.9901C20.9115 27.8633 25.0946 19.4409 35.0739 18.7656V22.7048C32.0101 23.0175 25.451 25.3122 23.7252 31.9901V45.1208H35.0739L41.8268 60.5962L49.0487 45.1208H57.0209V67.5368H53.2693V46.0587L38.2628 78.0413H35.0739L40.4199 65.0982L32.9167 49.2476H23.7252V67.5368H20.0674Z" fill="white"/>
<path d="M54.301 37.8989C55.8031 37.8989 57.0209 36.6392 57.0209 35.0852C57.0209 33.5312 55.8031 32.2715 54.301 32.2715C52.7988 32.2715 51.581 33.5312 51.581 35.0852C51.581 36.6392 52.7988 37.8989 54.301 37.8989Z" fill="white"/>
<path fill-rule="evenodd" clip-rule="evenodd" d="M80.4421 0H0V11.9901V24.3605V78.0409H7.23777H35.9791H80.4421V0ZM35.9791 78.0409L77.4045 72.4555L68.0154 2.81952L0 11.9901V24.3605L7.23777 78.0409H35.9791Z" fill="white"/>
</svg>
