<svg width="210" height="55" viewBox="0 0 210 55" fill="none" xmlns="http://www.w3.org/2000/svg">
<path d="M64.6821 35.7869H63.4309V25.0271H69.429V26.1384H64.6821V30.0758H69.142V31.1871H64.6821V35.7869ZM77.9956 31.7464C77.9956 33.0614 77.6644 34.0892 77.0021 34.8301C76.3397 35.5661 75.4247 35.9341 74.2569 35.9341C73.5357 35.9341 72.8954 35.7648 72.3361 35.4262C71.7767 35.0877 71.345 34.602 71.0408 33.969C70.7366 33.3361 70.5845 32.5952 70.5845 31.7464C70.5845 30.4315 70.9132 29.4085 71.5707 28.6775C72.2281 27.9415 73.1407 27.5735 74.3085 27.5735C75.4369 27.5735 76.3323 27.9489 76.9947 28.6996C77.662 29.4502 77.9956 30.4659 77.9956 31.7464ZM71.8503 31.7464C71.8503 32.7768 72.0564 33.5618 72.4686 34.1015C72.8807 34.6412 73.4866 34.9111 74.2864 34.9111C75.0861 34.9111 75.6921 34.6437 76.1042 34.1089C76.5212 33.5692 76.7298 32.7817 76.7298 31.7464C76.7298 30.721 76.5212 29.9433 76.1042 29.4134C75.6921 28.8786 75.0812 28.6112 74.2717 28.6112C73.4719 28.6112 72.8684 28.8737 72.4612 29.3987C72.054 29.9237 71.8503 30.7063 71.8503 31.7464ZM83.8244 27.5735C84.1826 27.5735 84.504 27.603 84.7885 27.6619L84.6193 28.7952C84.2856 28.7216 83.9913 28.6848 83.7361 28.6848C83.0836 28.6848 82.5242 28.9498 82.0581 29.4797C81.5969 30.0096 81.3663 30.6695 81.3663 31.4594V35.7869H80.1446V27.7207H81.1529L81.2927 29.2147H81.3516C81.6509 28.6897 82.0115 28.285 82.4335 28.0004C82.8554 27.7158 83.3191 27.5735 83.8244 27.5735ZM93.1343 30.407L96.0046 25.0271H97.3588L93.7673 31.614V35.7869H92.5014V31.6728L88.9173 25.0271H90.2862L93.1343 30.407ZM105.624 31.7464C105.624 33.0614 105.292 34.0892 104.63 34.8301C103.968 35.5661 103.053 35.9341 101.885 35.9341C101.164 35.9341 100.523 35.7648 99.9641 35.4262C99.4047 35.0877 98.973 34.602 98.6688 33.969C98.3646 33.3361 98.2125 32.5952 98.2125 31.7464C98.2125 30.4315 98.5412 29.4085 99.1987 28.6775C99.8561 27.9415 100.769 27.5735 101.936 27.5735C103.065 27.5735 103.96 27.9489 104.623 28.6996C105.29 29.4502 105.624 30.4659 105.624 31.7464ZM99.4783 31.7464C99.4783 32.7768 99.6844 33.5618 100.097 34.1015C100.509 34.6412 101.115 34.9111 101.914 34.9111C102.714 34.9111 103.32 34.6437 103.732 34.1089C104.149 33.5692 104.358 32.7817 104.358 31.7464C104.358 30.721 104.149 29.9433 103.732 29.4134C103.32 28.8786 102.709 28.6112 101.9 28.6112C101.1 28.6112 100.496 28.8737 100.089 29.3987C99.682 29.9237 99.4783 30.7063 99.4783 31.7464ZM108.921 27.7207V32.9534C108.921 33.6109 109.07 34.1015 109.37 34.4253C109.669 34.7492 110.138 34.9111 110.775 34.9111C111.619 34.9111 112.235 34.6805 112.623 34.2193C113.015 33.7581 113.211 33.0049 113.211 31.9599V27.7207H114.433V35.7869H113.425L113.248 34.705H113.182C112.932 35.1024 112.583 35.4066 112.137 35.6176C111.695 35.8286 111.19 35.9341 110.621 35.9341C109.64 35.9341 108.904 35.701 108.413 35.2349C107.927 34.7688 107.684 34.023 107.684 32.9976V27.7207H108.921ZM120.711 27.5735C121.069 27.5735 121.39 27.603 121.675 27.6619L121.506 28.7952C121.172 28.7216 120.878 28.6848 120.623 28.6848C119.97 28.6848 119.411 28.9498 118.945 29.4797C118.483 30.0096 118.253 30.6695 118.253 31.4594V35.7869H117.031V27.7207H118.039L118.179 29.2147H118.238C118.537 28.6897 118.898 28.285 119.32 28.0004C119.742 27.7158 120.205 27.5735 120.711 27.5735ZM127.283 35.7869V25.0271H128.534V35.7869H127.283ZM136.828 35.7869V30.5689C136.828 29.9114 136.679 29.4208 136.379 29.097C136.08 28.7732 135.612 28.6112 134.974 28.6112C134.13 28.6112 133.512 28.8394 133.119 29.2957C132.727 29.752 132.53 30.5051 132.53 31.5551V35.7869H131.309V27.7207H132.302L132.501 28.8247H132.56C132.81 28.4273 133.161 28.1206 133.612 27.9047C134.064 27.6839 134.567 27.5735 135.121 27.5735C136.092 27.5735 136.823 27.809 137.314 28.2801C137.805 28.7462 138.05 29.4944 138.05 30.5247V35.7869H136.828ZM144.203 28.6701H142.149V35.7869H140.928V28.6701H139.485V28.1181L140.928 27.6766V27.2276C140.928 25.2454 141.794 24.2543 143.526 24.2543C143.952 24.2543 144.453 24.3402 145.027 24.5119L144.711 25.4908C144.24 25.3387 143.837 25.2626 143.504 25.2626C143.042 25.2626 142.701 25.4172 142.481 25.7263C142.26 26.0305 142.149 26.5211 142.149 27.1982V27.7207H144.203V28.6701ZM152.637 31.7464C152.637 33.0614 152.306 34.0892 151.643 34.8301C150.981 35.5661 150.066 35.9341 148.898 35.9341C148.177 35.9341 147.537 35.7648 146.977 35.4262C146.418 35.0877 145.986 34.602 145.682 33.969C145.378 33.3361 145.226 32.5952 145.226 31.7464C145.226 30.4315 145.554 29.4085 146.212 28.6775C146.869 27.9415 147.782 27.5735 148.95 27.5735C150.078 27.5735 150.974 27.9489 151.636 28.6996C152.303 29.4502 152.637 30.4659 152.637 31.7464ZM146.492 31.7464C146.492 32.7768 146.698 33.5618 147.11 34.1015C147.522 34.6412 148.128 34.9111 148.928 34.9111C149.727 34.9111 150.333 34.6437 150.745 34.1089C151.162 33.5692 151.371 32.7817 151.371 31.7464C151.371 30.721 151.162 29.9433 150.745 29.4134C150.333 28.8786 149.722 28.6112 148.913 28.6112C148.113 28.6112 147.51 28.8737 147.102 29.3987C146.695 29.9237 146.492 30.7063 146.492 31.7464ZM158.466 27.5735C158.824 27.5735 159.145 27.603 159.43 27.6619L159.26 28.7952C158.927 28.7216 158.632 28.6848 158.377 28.6848C157.725 28.6848 157.165 28.9498 156.699 29.4797C156.238 30.0096 156.008 30.6695 156.008 31.4594V35.7869H154.786V27.7207H155.794L155.934 29.2147H155.993C156.292 28.6897 156.653 28.285 157.075 28.0004C157.497 27.7158 157.96 27.5735 158.466 27.5735ZM171.22 35.7869V30.5395C171.22 29.8967 171.082 29.4159 170.808 29.097C170.533 28.7732 170.106 28.6112 169.527 28.6112C168.767 28.6112 168.205 28.8296 167.842 29.2662C167.479 29.7029 167.297 30.3751 167.297 31.2828V35.7869H166.075V30.5395C166.075 29.8967 165.938 29.4159 165.663 29.097C165.389 28.7732 164.959 28.6112 164.375 28.6112C163.61 28.6112 163.048 28.8418 162.69 29.303C162.337 29.7593 162.16 30.51 162.16 31.5551V35.7869H160.938V27.7207H161.932L162.131 28.8247H162.19C162.42 28.4322 162.744 28.1255 163.161 27.9047C163.583 27.6839 164.054 27.5735 164.574 27.5735C165.835 27.5735 166.659 28.0298 167.047 28.9424H167.106C167.346 28.5205 167.695 28.1868 168.151 27.9415C168.607 27.6962 169.127 27.5735 169.711 27.5735C170.624 27.5735 171.306 27.809 171.757 28.2801C172.213 28.7462 172.442 29.4944 172.442 30.5247V35.7869H171.22ZM179.926 35.7869L179.683 34.6388H179.625C179.222 35.1441 178.82 35.4876 178.418 35.6691C178.02 35.8457 177.522 35.9341 176.924 35.9341C176.124 35.9341 175.496 35.728 175.04 35.3158C174.588 34.9037 174.362 34.3174 174.362 33.5569C174.362 31.928 175.665 31.0743 178.27 30.9958L179.639 30.9516V30.4511C179.639 29.8182 179.502 29.3521 179.227 29.0528C178.957 28.7486 178.523 28.5965 177.924 28.5965C177.252 28.5965 176.492 28.8026 175.643 29.2147L175.268 28.2801C175.665 28.0642 176.099 27.8949 176.57 27.7722C177.046 27.6496 177.522 27.5883 177.998 27.5883C178.96 27.5883 179.671 27.8017 180.132 28.2285C180.598 28.6554 180.832 29.3398 180.832 30.2819V35.7869H179.926ZM177.166 34.9258C177.927 34.9258 178.523 34.7173 178.955 34.3002C179.391 33.8832 179.61 33.2993 179.61 32.5486V31.82L178.388 31.8716C177.417 31.9059 176.715 32.058 176.283 32.3278C175.856 32.5928 175.643 33.0074 175.643 33.5716C175.643 34.0132 175.775 34.3493 176.04 34.5799C176.31 34.8105 176.686 34.9258 177.166 34.9258ZM185.961 34.9258C186.177 34.9258 186.386 34.9111 186.587 34.8816C186.788 34.8473 186.947 34.8129 187.065 34.7786V35.7133C186.933 35.7771 186.736 35.8286 186.476 35.8678C186.221 35.912 185.991 35.9341 185.785 35.9341C184.224 35.9341 183.444 35.1122 183.444 33.4686V28.6701H182.289V28.0813L183.444 27.5735L183.959 25.8514H184.666V27.7207H187.006V28.6701H184.666V33.4171C184.666 33.9028 184.781 34.2757 185.012 34.5357C185.242 34.7958 185.559 34.9258 185.961 34.9258ZM189.906 35.7869H188.684V27.7207H189.906V35.7869ZM188.581 25.5349C188.581 25.2553 188.65 25.0516 188.787 24.9241C188.925 24.7916 189.096 24.7254 189.302 24.7254C189.499 24.7254 189.668 24.7916 189.81 24.9241C189.953 25.0565 190.024 25.2602 190.024 25.5349C190.024 25.8097 189.953 26.0157 189.81 26.1531C189.668 26.2856 189.499 26.3518 189.302 26.3518C189.096 26.3518 188.925 26.2856 188.787 26.1531C188.65 26.0157 188.581 25.8097 188.581 25.5349ZM199.459 31.7464C199.459 33.0614 199.128 34.0892 198.465 34.8301C197.803 35.5661 196.888 35.9341 195.72 35.9341C194.999 35.9341 194.358 35.7648 193.799 35.4262C193.24 35.0877 192.808 34.602 192.504 33.969C192.2 33.3361 192.048 32.5952 192.048 31.7464C192.048 30.4315 192.376 29.4085 193.034 28.6775C193.691 27.9415 194.604 27.5735 195.772 27.5735C196.9 27.5735 197.795 27.9489 198.458 28.6996C199.125 29.4502 199.459 30.4659 199.459 31.7464ZM193.313 31.7464C193.313 32.7768 193.519 33.5618 193.932 34.1015C194.344 34.6412 194.95 34.9111 195.749 34.9111C196.549 34.9111 197.155 34.6437 197.567 34.1089C197.984 33.5692 198.193 32.7817 198.193 31.7464C198.193 30.721 197.984 29.9433 197.567 29.4134C197.155 28.8786 196.544 28.6112 195.735 28.6112C194.935 28.6112 194.332 28.8737 193.924 29.3987C193.517 29.9237 193.313 30.7063 193.313 31.7464ZM207.127 35.7869V30.5689C207.127 29.9114 206.978 29.4208 206.678 29.097C206.379 28.7732 205.911 28.6112 205.273 28.6112C204.429 28.6112 203.811 28.8394 203.418 29.2957C203.026 29.752 202.829 30.5051 202.829 31.5551V35.7869H201.608V27.7207H202.601L202.8 28.8247H202.859C203.109 28.4273 203.46 28.1206 203.911 27.9047C204.363 27.6839 204.866 27.5735 205.42 27.5735C206.391 27.5735 207.123 27.809 207.613 28.2801C208.104 28.7462 208.349 29.4944 208.349 30.5247V35.7869H207.127ZM63.4309 50.7869V40.0271H64.6821V49.6535H69.429V50.7869H63.4309ZM74.4851 50.9341C73.2928 50.9341 72.3508 50.571 71.659 49.8448C70.9721 49.1187 70.6286 48.1104 70.6286 46.82C70.6286 45.5198 70.9476 44.487 71.5854 43.7216C72.2281 42.9562 73.0892 42.5735 74.1686 42.5735C75.1793 42.5735 75.9791 42.9072 76.5679 43.5744C77.1566 44.2368 77.451 45.1126 77.451 46.2018V46.9746H71.8945C71.919 47.9215 72.157 48.6403 72.6084 49.131C73.0647 49.6216 73.705 49.8669 74.5292 49.8669C75.3977 49.8669 76.2563 49.6854 77.1051 49.3223V50.4115C76.6733 50.598 76.2637 50.7304 75.8761 50.8089C75.4934 50.8924 75.0297 50.9341 74.4851 50.9341ZM74.1539 43.5965C73.5063 43.5965 72.9886 43.8075 72.601 44.2294C72.2183 44.6514 71.9926 45.2353 71.9239 45.981H76.141C76.141 45.2107 75.9693 44.622 75.6258 44.2147C75.2824 43.8026 74.7917 43.5965 74.1539 43.5965ZM84.5015 50.7869L84.2587 49.6388H84.1998C83.7975 50.1441 83.3951 50.4876 82.9928 50.6691C82.5954 50.8457 82.0974 50.9341 81.4988 50.9341C80.6991 50.9341 80.071 50.728 79.6147 50.3158C79.1633 49.9037 78.9377 49.3174 78.9377 48.5569C78.9377 46.928 80.2403 46.0743 82.8456 45.9958L84.2145 45.9516V45.4511C84.2145 44.8182 84.0771 44.3521 83.8024 44.0528C83.5325 43.7486 83.0983 43.5965 82.4997 43.5965C81.8275 43.5965 81.067 43.8026 80.2182 44.2147L79.8429 43.2801C80.2403 43.0642 80.6745 42.8949 81.1455 42.7722C81.6215 42.6496 82.0974 42.5883 82.5733 42.5883C83.535 42.5883 84.2464 42.8017 84.7076 43.2285C85.1737 43.6554 85.4068 44.3398 85.4068 45.2819V50.7869H84.5015ZM81.7417 49.9258C82.5022 49.9258 83.0983 49.7173 83.5301 49.3002C83.9667 48.8832 84.1851 48.2993 84.1851 47.5486V46.82L82.9634 46.8716C81.9919 46.9059 81.2903 47.058 80.8585 47.3278C80.4317 47.5928 80.2182 48.0074 80.2182 48.5716C80.2182 49.0132 80.3507 49.3493 80.6156 49.5799C80.8855 49.8105 81.2608 49.9258 81.7417 49.9258ZM91.6109 42.5735C91.9691 42.5735 92.2904 42.603 92.575 42.6619L92.4057 43.7952C92.0721 43.7216 91.7777 43.6848 91.5226 43.6848C90.87 43.6848 90.3107 43.9498 89.8446 44.4797C89.3834 45.0096 89.1528 45.6695 89.1528 46.4594V50.7869H87.9311V42.7207H88.9394L89.0792 44.2147H89.1381C89.4374 43.6897 89.798 43.285 90.2199 43.0004C90.6419 42.7158 91.1055 42.5735 91.6109 42.5735ZM99.6034 50.7869V45.5689C99.6034 44.9114 99.4538 44.4208 99.1545 44.097C98.8552 43.7732 98.3867 43.6112 97.7488 43.6112C96.9049 43.6112 96.2867 43.8394 95.8942 44.2957C95.5017 44.752 95.3054 45.5051 95.3054 46.5551V50.7869H94.0837V42.7207H95.0773L95.276 43.8247H95.3349C95.5851 43.4273 95.9359 43.1206 96.3873 42.9047C96.8387 42.6839 97.3416 42.5735 97.896 42.5735C98.8675 42.5735 99.5985 42.809 100.089 43.2801C100.58 43.7462 100.825 44.4944 100.825 45.5247V50.7869H99.6034ZM104.564 50.7869H103.342V42.7207H104.564V50.7869ZM103.239 40.5349C103.239 40.2553 103.308 40.0516 103.445 39.9241C103.583 39.7916 103.754 39.7254 103.96 39.7254C104.157 39.7254 104.326 39.7916 104.468 39.9241C104.61 40.0565 104.682 40.2602 104.682 40.5349C104.682 40.8097 104.61 41.0157 104.468 41.1531C104.326 41.2856 104.157 41.3518 103.96 41.3518C103.754 41.3518 103.583 41.2856 103.445 41.1531C103.308 41.0157 103.239 40.8097 103.239 40.5349ZM112.674 50.7869V45.5689C112.674 44.9114 112.524 44.4208 112.225 44.097C111.926 43.7732 111.457 43.6112 110.82 43.6112C109.976 43.6112 109.357 43.8394 108.965 44.2957C108.572 44.752 108.376 45.5051 108.376 46.5551V50.7869H107.154V42.7207H108.148L108.347 43.8247H108.406C108.656 43.4273 109.007 43.1206 109.458 42.9047C109.909 42.6839 110.412 42.5735 110.967 42.5735C111.938 42.5735 112.669 42.809 113.16 43.2801C113.651 43.7462 113.896 44.4944 113.896 45.5247V50.7869H112.674ZM123.014 42.7207V43.4935L121.52 43.6701C121.658 43.8418 121.78 44.0675 121.888 44.3472C121.996 44.622 122.05 44.9335 122.05 45.2819C122.05 46.0718 121.78 46.7023 121.241 47.1733C120.701 47.6443 119.96 47.8798 119.018 47.8798C118.778 47.8798 118.552 47.8602 118.341 47.8209C117.821 48.0957 117.561 48.4416 117.561 48.8586C117.561 49.0794 117.652 49.2438 117.833 49.3517C118.015 49.4548 118.326 49.5063 118.768 49.5063H120.196C121.069 49.5063 121.739 49.6903 122.205 50.0583C122.676 50.4262 122.911 50.961 122.911 51.6627C122.911 52.5556 122.553 53.2352 121.837 53.7013C121.121 54.1723 120.075 54.4078 118.702 54.4078C117.647 54.4078 116.832 54.2115 116.258 53.819C115.689 53.4265 115.405 52.8721 115.405 52.1558C115.405 51.6651 115.562 51.2407 115.876 50.8825C116.19 50.5244 116.631 50.2815 117.2 50.1539C116.994 50.0607 116.82 49.916 116.678 49.7197C116.54 49.5235 116.472 49.2953 116.472 49.0353C116.472 48.7409 116.55 48.4833 116.707 48.2625C116.864 48.0417 117.112 47.8283 117.451 47.6222C117.033 47.4505 116.692 47.1586 116.428 46.7464C116.167 46.3343 116.037 45.8633 116.037 45.3334C116.037 44.4502 116.302 43.7707 116.832 43.2948C117.362 42.8139 118.113 42.5735 119.084 42.5735C119.506 42.5735 119.887 42.6226 120.225 42.7207H123.014ZM116.582 52.141C116.582 52.5777 116.766 52.9089 117.134 53.1346C117.502 53.3603 118.029 53.4731 118.716 53.4731C119.742 53.4731 120.5 53.3186 120.99 53.0095C121.486 52.7053 121.734 52.2907 121.734 51.7657C121.734 51.329 121.599 51.0248 121.329 50.8531C121.059 50.6863 120.551 50.6029 119.806 50.6029H118.341C117.787 50.6029 117.355 50.7353 117.046 51.0003C116.737 51.2652 116.582 51.6455 116.582 52.141ZM117.244 45.304C117.244 45.8682 117.404 46.295 117.723 46.5845C118.042 46.874 118.486 47.0187 119.055 47.0187C120.247 47.0187 120.843 46.4398 120.843 45.2819C120.843 44.07 120.24 43.464 119.033 43.464C118.459 43.464 118.017 43.6186 117.708 43.9277C117.399 44.2368 117.244 44.6956 117.244 45.304ZM134.841 47.924C134.841 48.8709 134.498 49.6093 133.811 50.1392C133.124 50.6691 132.192 50.9341 131.014 50.9341C129.739 50.9341 128.757 50.7697 128.07 50.441V49.234C128.512 49.4204 128.993 49.5676 129.513 49.6756C130.033 49.7835 130.548 49.8375 131.058 49.8375C131.893 49.8375 132.521 49.6805 132.943 49.3665C133.364 49.0475 133.575 48.606 133.575 48.0417C133.575 47.6688 133.499 47.3646 133.347 47.1291C133.2 46.8887 132.95 46.6679 132.597 46.4668C132.248 46.2656 131.716 46.0375 131 45.7823C129.999 45.4242 129.282 44.9998 128.851 44.5091C128.424 44.0185 128.21 43.3782 128.21 42.5883C128.21 41.7591 128.522 41.0992 129.145 40.6085C129.768 40.1179 130.592 39.8726 131.618 39.8726C132.687 39.8726 133.671 40.0688 134.569 40.4613L134.179 41.5505C133.291 41.1777 132.427 40.9912 131.588 40.9912C130.926 40.9912 130.408 41.1335 130.035 41.4181C129.663 41.7026 129.476 42.0976 129.476 42.603C129.476 42.9759 129.545 43.2825 129.682 43.5229C129.82 43.7584 130.05 43.9768 130.374 44.1779C130.703 44.3742 131.203 44.5925 131.875 44.8329C133.004 45.2353 133.779 45.667 134.201 46.1282C134.628 46.5894 134.841 47.188 134.841 47.924ZM143.82 46.7464C143.82 48.0614 143.489 49.0892 142.826 49.8301C142.164 50.5661 141.249 50.9341 140.081 50.9341C139.36 50.9341 138.72 50.7648 138.16 50.4262C137.601 50.0877 137.169 49.602 136.865 48.969C136.561 48.3361 136.409 47.5952 136.409 46.7464C136.409 45.4315 136.738 44.4085 137.395 43.6775C138.053 42.9415 138.965 42.5735 140.133 42.5735C141.261 42.5735 142.157 42.9489 142.819 43.6996C143.486 44.4502 143.82 45.4659 143.82 46.7464ZM137.675 46.7464C137.675 47.7768 137.881 48.5618 138.293 49.1015C138.705 49.6412 139.311 49.9111 140.111 49.9111C140.911 49.9111 141.516 49.6437 141.929 49.1089C142.346 48.5692 142.554 47.7817 142.554 46.7464C142.554 45.721 142.346 44.9433 141.929 44.4134C141.516 43.8786 140.906 43.6112 140.096 43.6112C139.296 43.6112 138.693 43.8737 138.286 44.3987C137.878 44.9237 137.675 45.7063 137.675 46.7464ZM147.191 50.7869H145.969V39.3353H147.191V50.7869ZM150.929 42.7207V47.9534C150.929 48.6109 151.079 49.1015 151.378 49.4253C151.678 49.7492 152.146 49.9111 152.784 49.9111C153.628 49.9111 154.244 49.6805 154.631 49.2193C155.024 48.7581 155.22 48.0049 155.22 46.9599V42.7207H156.442V50.7869H155.433L155.257 49.705H155.191C154.94 50.1024 154.592 50.4066 154.146 50.6176C153.704 50.8286 153.199 50.9341 152.629 50.9341C151.648 50.9341 150.912 50.701 150.422 50.2349C149.936 49.7688 149.693 49.023 149.693 47.9976V42.7207H150.929ZM161.645 49.9258C161.861 49.9258 162.069 49.9111 162.271 49.8816C162.472 49.8473 162.631 49.8129 162.749 49.7786V50.7133C162.616 50.7771 162.42 50.8286 162.16 50.8678C161.905 50.912 161.674 50.9341 161.468 50.9341C159.908 50.9341 159.128 50.1122 159.128 48.4686V43.6701H157.973V43.0813L159.128 42.5735L159.643 40.8514H160.35V42.7207H162.69V43.6701H160.35V48.4171C160.35 48.9028 160.465 49.2757 160.696 49.5357C160.926 49.7958 161.243 49.9258 161.645 49.9258ZM165.59 50.7869H164.368V42.7207H165.59V50.7869ZM164.265 40.5349C164.265 40.2553 164.334 40.0516 164.471 39.9241C164.608 39.7916 164.78 39.7254 164.986 39.7254C165.183 39.7254 165.352 39.7916 165.494 39.9241C165.636 40.0565 165.708 40.2602 165.708 40.5349C165.708 40.8097 165.636 41.0157 165.494 41.1531C165.352 41.2856 165.183 41.3518 164.986 41.3518C164.78 41.3518 164.608 41.2856 164.471 41.1531C164.334 41.0157 164.265 40.8097 164.265 40.5349ZM175.143 46.7464C175.143 48.0614 174.811 49.0892 174.149 49.8301C173.487 50.5661 172.572 50.9341 171.404 50.9341C170.683 50.9341 170.042 50.7648 169.483 50.4262C168.924 50.0877 168.492 49.602 168.188 48.969C167.884 48.3361 167.731 47.5952 167.731 46.7464C167.731 45.4315 168.06 44.4085 168.718 43.6775C169.375 42.9415 170.288 42.5735 171.455 42.5735C172.584 42.5735 173.479 42.9489 174.142 43.6996C174.809 44.4502 175.143 45.4659 175.143 46.7464ZM168.997 46.7464C168.997 47.7768 169.203 48.5618 169.615 49.1015C170.028 49.6412 170.634 49.9111 171.433 49.9111C172.233 49.9111 172.839 49.6437 173.251 49.1089C173.668 48.5692 173.877 47.7817 173.877 46.7464C173.877 45.721 173.668 44.9433 173.251 44.4134C172.839 43.8786 172.228 43.6112 171.419 43.6112C170.619 43.6112 170.015 43.8737 169.608 44.3987C169.201 44.9237 168.997 45.7063 168.997 46.7464ZM182.811 50.7869V45.5689C182.811 44.9114 182.662 44.4208 182.362 44.097C182.063 43.7732 181.594 43.6112 180.957 43.6112C180.113 43.6112 179.495 43.8394 179.102 44.2957C178.709 44.752 178.513 45.5051 178.513 46.5551V50.7869H177.292V42.7207H178.285L178.484 43.8247H178.543C178.793 43.4273 179.144 43.1206 179.595 42.9047C180.046 42.6839 180.549 42.5735 181.104 42.5735C182.075 42.5735 182.806 42.809 183.297 43.2801C183.788 43.7462 184.033 44.4944 184.033 45.5247V50.7869H182.811Z" fill="white"/>
<path d="M13.8853 46.7315V22.1352C14.4693 19.2797 17.3638 13.4519 24.2689 12.9846V15.7103C22.1489 15.9267 17.6104 17.5145 16.4163 22.1352V31.2209H24.2689L28.9415 41.929L33.9387 31.2209H39.455V46.7315H36.8591V31.8699L26.4754 54H24.2689L27.9681 45.0441L22.7763 34.0764H16.4163V46.7315H13.8853Z" fill="white"/>
<path d="M37.573 26.2238C38.6124 26.2238 39.455 25.3521 39.455 24.2768C39.455 23.2016 38.6124 22.3299 37.573 22.3299C36.5335 22.3299 35.6909 23.2016 35.6909 24.2768C35.6909 25.3521 36.5335 26.2238 37.573 26.2238Z" fill="white"/>
<path fill-rule="evenodd" clip-rule="evenodd" d="M55.6614 0H0V8.29647V16.8561V53.9999H5.00813H24.8955H55.6614V0ZM24.8955 53.9999L53.5595 50.1351L47.0628 1.95095L0 8.29647V16.8561L5.00813 53.9999H24.8955Z" fill="white"/>
</svg>
