<svg width="189" height="56" viewBox="0 0 189 56" fill="none" xmlns="http://www.w3.org/2000/svg">
<path d="M58.218 43.6042L57.0166 47.0082H56.9165C56.7162 46.2406 56.3491 45.0726 55.7484 43.6709L49.3075 27.4851H43V53.2823H47.1716V37.3635C47.1716 36.3623 47.1716 35.2276 47.1382 33.8259C47.1049 33.1251 47.0381 32.5911 47.0047 32.1907H47.1049C47.3051 33.1919 47.5387 33.9261 47.7056 34.3933L55.4481 53.2156H58.3849L66.0606 34.2264C66.2275 33.7926 66.3943 32.9249 66.5612 32.1907H66.6613C66.5612 34.0929 66.4945 35.7949 66.4611 36.8295V53.1822H70.8997V27.4184H64.8258L58.218 43.6042ZM75.1046 34.6936H79.4431V53.1822H75.1046V34.6936ZM77.3073 26.8844C76.5731 26.8844 75.9723 27.1514 75.4717 27.6186C74.9712 28.0858 74.7042 28.6865 74.7042 29.4207C74.7042 30.1216 74.9712 30.7223 75.4717 31.1895C75.9723 31.6567 76.5731 31.8903 77.3073 31.8903C78.0415 31.8903 78.6755 31.6233 79.1428 31.1895C79.6434 30.7223 79.9103 30.1216 79.9103 29.4207C79.9103 28.7199 79.6434 28.1192 79.1428 27.6186C78.7089 27.1514 78.0748 26.8844 77.3073 26.8844V26.8844ZM94.828 34.5268C94.027 34.3599 93.1927 34.2598 92.3918 34.2598C90.4228 34.2598 88.6206 34.6936 87.1189 35.5613C85.6171 36.429 84.4157 37.6304 83.6481 39.1322C82.8471 40.6674 82.4467 42.4361 82.4467 44.4719C82.4467 46.2406 82.8471 47.8092 83.6147 49.2442C84.3823 50.6458 85.4502 51.7805 86.8853 52.5481C88.2535 53.3157 89.8554 53.7161 91.6576 53.7161C93.7267 53.7161 95.4954 53.2823 96.8971 52.4813L96.9305 52.448V48.4432L96.7636 48.5767C96.1295 49.0439 95.3953 49.4444 94.6611 49.678C93.8935 49.945 93.1927 50.0785 92.592 50.0785C90.8566 50.0785 89.4883 49.5779 88.5205 48.4766C87.5193 47.4087 87.0187 45.9403 87.0187 44.1048C87.0187 42.2025 87.5193 40.7007 88.5539 39.5994C89.5885 38.4981 90.9567 37.9308 92.6254 37.9308C94.027 37.9308 95.4621 38.398 96.7636 39.3325L96.9305 39.466V35.2276L96.8971 35.1942C96.3298 34.9606 95.6957 34.6936 94.828 34.5268V34.5268ZM109.145 34.3933C108.077 34.3933 107.076 34.727 106.208 35.4278C105.474 36.0286 104.973 36.8962 104.539 37.9308H104.506V34.6936H100.168V53.1822H104.506V43.7377C104.506 42.1358 104.84 40.8009 105.574 39.8331C106.308 38.8319 107.243 38.3313 108.377 38.3313C108.778 38.3313 109.178 38.4314 109.679 38.4981C110.146 38.6316 110.48 38.7651 110.713 38.932L110.88 39.0655V34.727L110.78 34.6936C110.48 34.4934 109.879 34.3933 109.145 34.3933V34.3933ZM120.959 34.2932C117.922 34.2932 115.486 35.1942 113.784 36.963C112.048 38.7317 111.214 41.168 111.214 44.2383C111.214 47.1083 112.082 49.4444 113.75 51.1464C115.419 52.8151 117.688 53.6828 120.525 53.6828C123.495 53.6828 125.865 52.7817 127.567 50.9796C129.302 49.1774 130.136 46.7746 130.136 43.8044C130.136 40.8676 129.335 38.5315 127.7 36.8295C126.132 35.1275 123.829 34.2932 120.959 34.2932V34.2932ZM124.43 48.51C123.629 49.5445 122.361 50.0451 120.792 50.0451C119.224 50.0451 117.955 49.5445 117.054 48.4432C116.153 47.4087 115.719 45.9069 115.719 44.0047C115.719 42.0357 116.187 40.5339 117.054 39.466C117.955 38.398 119.19 37.8641 120.759 37.8641C122.294 37.8641 123.495 38.3646 124.363 39.3992C125.231 40.4338 125.698 41.9355 125.698 43.9045C125.631 45.9069 125.264 47.4754 124.43 48.51V48.51ZM139.815 42.3694C138.446 41.802 137.579 41.3682 137.178 41.0011C136.844 40.6674 136.677 40.2002 136.677 39.5994C136.677 39.0988 136.878 38.5983 137.378 38.2645C137.879 37.9308 138.446 37.7639 139.281 37.7639C140.015 37.7639 140.782 37.8974 141.517 38.0977C142.251 38.2979 142.918 38.5983 143.452 38.9987L143.619 39.1322V35.0607L143.519 35.0274C143.018 34.8271 142.351 34.6269 141.55 34.46C140.749 34.3265 140.015 34.2598 139.414 34.2598C137.345 34.2598 135.643 34.7604 134.308 35.8617C132.973 36.8962 132.339 38.2979 132.339 39.9332C132.339 40.8009 132.473 41.5684 132.773 42.2025C133.073 42.8366 133.507 43.4373 134.108 43.9379C134.709 44.4051 135.576 44.9391 136.778 45.4397C137.779 45.8735 138.546 46.2073 139.014 46.4742C139.481 46.7412 139.781 47.0416 140.015 47.2752C140.182 47.5422 140.282 47.8759 140.282 48.3097C140.282 49.5445 139.347 50.1453 137.445 50.1453C136.711 50.1453 135.943 50.0118 135.042 49.7114C134.141 49.411 133.307 48.9772 132.606 48.4766L132.439 48.3431V52.5815L132.539 52.6148C133.173 52.9152 133.941 53.1154 134.875 53.349C135.81 53.5159 136.644 53.6494 137.378 53.6494C139.614 53.6494 141.45 53.1488 142.751 52.0475C144.086 50.9796 144.787 49.6113 144.787 47.8425C144.787 46.6077 144.453 45.5064 143.719 44.6721C142.751 43.8712 141.55 43.0368 139.815 42.3694V42.3694ZM156.234 34.2932C153.197 34.2932 150.761 35.1942 149.059 36.963C147.357 38.7317 146.489 41.168 146.489 44.2383C146.489 47.1083 147.357 49.4444 149.025 51.1464C150.694 52.8151 152.963 53.6828 155.8 53.6828C158.77 53.6828 161.14 52.7817 162.842 50.9796C164.577 49.1774 165.412 46.7746 165.412 43.8044C165.412 40.8676 164.611 38.5315 162.975 36.8295C161.407 35.1275 159.104 34.2932 156.234 34.2932V34.2932ZM159.671 48.51C158.87 49.5445 157.602 50.0451 156.034 50.0451C154.432 50.0451 153.197 49.5445 152.296 48.4432C151.395 47.4087 150.961 45.9069 150.961 44.0047C150.961 42.0357 151.428 40.5339 152.296 39.466C153.197 38.398 154.432 37.8641 156 37.8641C157.502 37.8641 158.737 38.3646 159.605 39.3992C160.472 40.4338 160.94 41.9355 160.94 43.9045C160.94 45.9069 160.506 47.4754 159.671 48.51V48.51ZM188.606 38.2645V34.6936H184.234V29.2205L184.1 29.2539L179.962 30.4887L179.862 30.522V34.6936H173.321V32.3575C173.321 31.2896 173.588 30.4553 174.055 29.9213C174.522 29.3874 175.223 29.1204 176.091 29.1204C176.692 29.1204 177.326 29.2539 178.026 29.5542L178.193 29.6543V25.8832L178.093 25.8498C177.492 25.6496 176.692 25.5161 175.657 25.5161C174.355 25.5161 173.221 25.8165 172.186 26.3171C171.152 26.8844 170.384 27.652 169.817 28.6865C169.249 29.6877 168.949 30.8224 168.949 32.1239V34.6936H165.912V38.2312H168.949V53.1822H173.321V38.2645H179.862V47.7758C179.862 51.6804 181.697 53.6494 185.368 53.6494C185.969 53.6494 186.603 53.5493 187.204 53.4492C187.838 53.3157 188.305 53.1488 188.572 53.0153L188.606 52.9819V49.411L188.439 49.5445C188.172 49.7114 187.938 49.8449 187.538 49.945C187.204 50.0451 186.904 50.0785 186.67 50.0785C185.802 50.0785 185.202 49.8783 184.768 49.3777C184.367 48.9105 184.167 48.1429 184.167 47.0082V38.2645H188.606Z" fill="#737373"/>
<path d="M0 23.3335H15.4559V38.7894H0V23.3335Z" fill="#F25022"/>
<path d="M17.0696 23.3335H32.5255V38.7894H17.0696V23.3335Z" fill="#7FBA00"/>
<path d="M0 40.4028H15.4559V55.8588H0V40.4028Z" fill="#00A4EF"/>
<path d="M17.0696 40.4028H32.5255V55.8588H17.0696V40.4028Z" fill="#FFB900"/>
<path d="M4.74308 12.9648L1.96882 5.71599H1.92408C1.97628 6.29023 2.00238 6.97261 2.00238 7.76312V12.9648H1.12424V4.78751H2.55612L5.14579 11.533H5.19054L7.80259 4.78751H9.22327V12.9648H8.27242V7.696C8.27242 7.09193 8.29852 6.43565 8.35073 5.72718H8.30598L5.50935 12.9648H4.74308ZM14.9872 12.9648L14.8027 12.0923H14.7579C14.4521 12.4764 14.1464 12.7374 13.8406 12.8754C13.5386 13.0096 13.1601 13.0767 12.7052 13.0767C12.0974 13.0767 11.6201 12.9201 11.2733 12.6069C10.9303 12.2937 10.7587 11.8481 10.7587 11.2701C10.7587 10.0321 11.7487 9.3833 13.7287 9.32364L14.7691 9.29008V8.90974C14.7691 8.42872 14.6647 8.07448 14.4559 7.84702C14.2508 7.61583 13.9208 7.50024 13.4659 7.50024C12.955 7.50024 12.377 7.65685 11.732 7.97007L11.4467 7.25973C11.7487 7.09566 12.0787 6.96701 12.4367 6.87379C12.7984 6.78057 13.1601 6.73396 13.5218 6.73396C14.2527 6.73396 14.7933 6.89617 15.1438 7.22057C15.4981 7.54498 15.6752 8.06516 15.6752 8.78109V12.9648H14.9872ZM12.8898 12.3104C13.4677 12.3104 13.9208 12.152 14.2489 11.835C14.5808 11.5181 14.7467 11.0743 14.7467 10.5038V9.95008L13.8182 9.98923C13.0799 10.0153 12.5467 10.1309 12.2186 10.336C11.8942 10.5374 11.732 10.8525 11.732 11.2813C11.732 11.6169 11.8326 11.8723 12.034 12.0476C12.2391 12.2228 12.5243 12.3104 12.8898 12.3104ZM18.4076 12.9648H17.4791V6.83464H18.4076V12.9648ZM17.4008 5.17344C17.4008 4.9609 17.453 4.80615 17.5574 4.7092C17.6618 4.60853 17.7924 4.55819 17.949 4.55819C18.0981 4.55819 18.2268 4.60853 18.3349 4.7092C18.443 4.80988 18.4971 4.96463 18.4971 5.17344C18.4971 5.38226 18.443 5.53887 18.3349 5.64328C18.2268 5.74396 18.0981 5.79429 17.949 5.79429C17.7924 5.79429 17.6618 5.74396 17.5574 5.64328C17.453 5.53887 17.4008 5.38226 17.4008 5.17344ZM24.2163 11.2925C24.2163 11.863 24.0038 12.303 23.5787 12.6125C23.1536 12.922 22.557 13.0767 21.7888 13.0767C20.976 13.0767 20.3421 12.9481 19.8871 12.6908V11.8294C20.1817 11.9786 20.4968 12.096 20.8324 12.1818C21.1717 12.2676 21.498 12.3104 21.8112 12.3104C22.296 12.3104 22.6689 12.234 22.9299 12.0811C23.1909 11.9245 23.3214 11.6877 23.3214 11.3708C23.3214 11.1321 23.217 10.9289 23.0082 10.7611C22.8031 10.5896 22.4004 10.3882 21.8 10.157C21.2295 9.94449 20.8231 9.75991 20.5807 9.6033C20.3421 9.44296 20.1631 9.26211 20.0438 9.06075C19.9282 8.8594 19.8704 8.61889 19.8704 8.33922C19.8704 7.83956 20.0736 7.44617 20.48 7.15905C20.8865 6.8682 21.4439 6.72277 22.1524 6.72277C22.8124 6.72277 23.4575 6.85701 24.0877 7.12549L23.7577 7.88058C23.1424 7.62702 22.585 7.50024 22.0853 7.50024C21.6453 7.50024 21.3134 7.56922 21.0897 7.70719C20.866 7.84515 20.7541 8.03532 20.7541 8.2777C20.7541 8.44177 20.7951 8.5816 20.8771 8.69719C20.9629 8.81279 21.099 8.92279 21.2855 9.02719C21.4719 9.1316 21.8299 9.28262 22.3594 9.48025C23.0865 9.745 23.5768 10.0116 23.8304 10.2801C24.0877 10.5486 24.2163 10.886 24.2163 11.2925ZM32.6512 12.1426H32.6008C32.172 12.7654 31.5307 13.0767 30.6767 13.0767C29.875 13.0767 29.2505 12.8026 28.803 12.2545C28.3593 11.7064 28.1374 10.927 28.1374 9.91652C28.1374 8.90601 28.3611 8.12109 28.8086 7.56176C29.2561 7.00244 29.8788 6.72277 30.6767 6.72277C31.5083 6.72277 32.1459 7.02481 32.5896 7.62888H32.6624L32.6232 7.18701L32.6008 6.75633V4.26174H33.5293V12.9648H32.7742L32.6512 12.1426ZM30.7942 12.2992C31.4281 12.2992 31.8868 12.1277 32.1701 11.7847C32.4573 11.4379 32.6008 10.8804 32.6008 10.1123V9.91652C32.6008 9.0477 32.4554 8.42872 32.1646 8.05956C31.8774 7.68668 31.4169 7.50024 30.783 7.50024C30.2386 7.50024 29.821 7.71278 29.5301 8.13787C29.243 8.55923 29.0995 9.15584 29.0995 9.92771C29.0995 10.7108 29.243 11.3018 29.5301 11.7008C29.8173 12.0998 30.2386 12.2992 30.7942 12.2992ZM37.9789 13.0767C37.0727 13.0767 36.3568 12.8008 35.831 12.2489C35.309 11.697 35.048 10.9308 35.048 9.95008C35.048 8.96194 35.2904 8.17702 35.7751 7.59532C36.2636 7.01362 36.918 6.72277 37.7383 6.72277C38.5065 6.72277 39.1143 6.97634 39.5617 7.48346C40.0092 7.98685 40.2329 8.65245 40.2329 9.48025V10.0675H36.01C36.0287 10.7872 36.2095 11.3335 36.5526 11.7064C36.8994 12.0792 37.386 12.2657 38.0124 12.2657C38.6724 12.2657 39.325 12.1277 39.97 11.8518V12.6796C39.6419 12.8213 39.3306 12.922 39.036 12.9816C38.7451 13.045 38.3928 13.0767 37.9789 13.0767ZM37.7272 7.50024C37.2349 7.50024 36.8416 7.66058 36.547 7.98126C36.2561 8.30194 36.0846 8.74567 36.0324 9.31245H39.2373C39.2373 8.72702 39.1068 8.27956 38.8458 7.97007C38.5848 7.65685 38.2119 7.50024 37.7272 7.50024ZM49.9039 11.0855H48.6902V12.9648H47.8008V11.0855H43.824V10.2745L47.7057 4.74276H48.6902V10.2409H49.9039V11.0855ZM47.8008 10.2409V7.52261C47.8008 6.98939 47.8195 6.38718 47.8568 5.71599H47.812C47.633 6.07396 47.4652 6.3704 47.3086 6.60532L44.7525 10.2409H47.8008ZM56.0034 8.86499C56.0034 10.2782 55.7797 11.3335 55.3322 12.0308C54.8885 12.7281 54.208 13.0767 53.2907 13.0767C52.4107 13.0767 51.7414 12.7206 51.2827 12.0084C50.8241 11.2925 50.5948 10.2447 50.5948 8.86499C50.5948 7.44058 50.8166 6.38345 51.2604 5.69362C51.7041 5.00378 52.3809 4.65886 53.2907 4.65886C54.1782 4.65886 54.8512 5.0187 55.3099 5.73836C55.7723 6.45803 56.0034 7.50024 56.0034 8.86499ZM51.5344 8.86499C51.5344 10.0545 51.6743 10.9214 51.9539 11.4659C52.2336 12.0065 52.6792 12.2769 53.2907 12.2769C53.9097 12.2769 54.3572 12.0028 54.6331 11.4547C54.9128 10.9028 55.0526 10.0396 55.0526 8.86499C55.0526 7.69041 54.9128 6.83091 54.6331 6.2865C54.3572 5.73836 53.9097 5.46429 53.2907 5.46429C52.6792 5.46429 52.2336 5.73463 51.9539 6.27531C51.6743 6.81227 51.5344 7.67549 51.5344 8.86499ZM62.4442 8.86499C62.4442 10.2782 62.2205 11.3335 61.773 12.0308C61.3293 12.7281 60.6487 13.0767 59.7315 13.0767C58.8515 13.0767 58.1821 12.7206 57.7235 12.0084C57.2648 11.2925 57.0355 10.2447 57.0355 8.86499C57.0355 7.44058 57.2574 6.38345 57.7011 5.69362C58.1448 5.00378 58.8216 4.65886 59.7315 4.65886C60.6189 4.65886 61.292 5.0187 61.7506 5.73836C62.213 6.45803 62.4442 7.50024 62.4442 8.86499ZM57.9752 8.86499C57.9752 10.0545 58.115 10.9214 58.3947 11.4659C58.6743 12.0065 59.1199 12.2769 59.7315 12.2769C60.3504 12.2769 60.7979 12.0028 61.0738 11.4547C61.3535 10.9028 61.4933 10.0396 61.4933 8.86499C61.4933 7.69041 61.3535 6.83091 61.0738 6.2865C60.7979 5.73836 60.3504 5.46429 59.7315 5.46429C59.1199 5.46429 58.6743 5.73463 58.3947 6.27531C58.115 6.81227 57.9752 7.67549 57.9752 8.86499ZM69.2011 13.0767C68.3136 13.0767 67.6256 12.8045 67.1371 12.2601C66.6524 11.712 66.41 10.9382 66.41 9.93889C66.41 8.91346 66.6561 8.12109 67.1483 7.56176C67.6443 7.00244 68.349 6.72277 69.2626 6.72277C69.5572 6.72277 69.8517 6.75447 70.1463 6.81786C70.4409 6.88125 70.6721 6.95583 70.8399 7.04159L70.5546 7.83024C70.3495 7.7482 70.1258 7.68109 69.8834 7.62888C69.6411 7.57295 69.4267 7.54498 69.2402 7.54498C67.9948 7.54498 67.3721 8.33922 67.3721 9.92771C67.3721 10.6809 67.5231 11.2589 67.8251 11.6616C68.1309 12.0643 68.5821 12.2657 69.1787 12.2657C69.6895 12.2657 70.2134 12.1557 70.7504 11.9357V12.7579C70.3402 12.9704 69.8238 13.0767 69.2011 13.0767ZM72.9682 6.83464V10.8114C72.9682 11.3111 73.0819 11.684 73.3094 11.9301C73.5369 12.1762 73.893 12.2992 74.3777 12.2992C75.0191 12.2992 75.487 12.124 75.7816 11.7735C76.0799 11.423 76.2291 10.8506 76.2291 10.0564V6.83464H77.1576V12.9648H76.3913L76.2571 12.1426H76.2067C76.0165 12.4447 75.7518 12.6759 75.4125 12.8362C75.0769 12.9965 74.6928 13.0767 74.2603 13.0767C73.5145 13.0767 72.9552 12.8996 72.5823 12.5453C72.2131 12.1911 72.0286 11.6243 72.0286 10.845V6.83464H72.9682ZM81.8141 6.72277C82.0863 6.72277 82.3305 6.74515 82.5468 6.78989L82.4181 7.65125C82.1646 7.59532 81.9408 7.56736 81.7469 7.56736C81.251 7.56736 80.8259 7.76871 80.4717 8.17143C80.1212 8.57414 79.9459 9.07567 79.9459 9.67601V12.9648H79.0174V6.83464H79.7837L79.89 7.97007H79.9347C80.1622 7.57108 80.4363 7.26346 80.7569 7.04718C81.0776 6.83091 81.43 6.72277 81.8141 6.72277ZM87.5333 11.2925C87.5333 11.863 87.3207 12.303 86.8956 12.6125C86.4706 12.922 85.8739 13.0767 85.1058 13.0767C84.2929 13.0767 83.659 12.9481 83.2041 12.6908V11.8294C83.4987 11.9786 83.8138 12.096 84.1494 12.1818C84.4887 12.2676 84.815 12.3104 85.1282 12.3104C85.6129 12.3104 85.9858 12.234 86.2468 12.0811C86.5078 11.9245 86.6384 11.6877 86.6384 11.3708C86.6384 11.1321 86.5339 10.9289 86.3251 10.7611C86.12 10.5896 85.7173 10.3882 85.117 10.157C84.5465 9.94449 84.14 9.75991 83.8977 9.6033C83.659 9.44296 83.48 9.26211 83.3607 9.06075C83.2451 8.8594 83.1873 8.61889 83.1873 8.33922C83.1873 7.83956 83.3905 7.44617 83.797 7.15905C84.2034 6.8682 84.7609 6.72277 85.4694 6.72277C86.1294 6.72277 86.7745 6.85701 87.4046 7.12549L87.0746 7.88058C86.4594 7.62702 85.9019 7.50024 85.4022 7.50024C84.9622 7.50024 84.6304 7.56922 84.4066 7.70719C84.1829 7.84515 84.071 8.03532 84.071 8.2777C84.071 8.44177 84.1121 8.5816 84.1941 8.69719C84.2799 8.81279 84.416 8.92279 84.6024 9.02719C84.7888 9.1316 85.1468 9.28262 85.6763 9.48025C86.4034 9.745 86.8938 10.0116 87.1473 10.2801C87.4046 10.5486 87.5333 10.886 87.5333 11.2925ZM94.2257 9.89415C94.2257 10.8935 93.974 11.6747 93.4706 12.2377C92.9672 12.797 92.2718 13.0767 91.3843 13.0767C90.8362 13.0767 90.3496 12.9481 89.9245 12.6908C89.4994 12.4335 89.1713 12.0643 88.9401 11.5833C88.7089 11.1023 88.5933 10.5392 88.5933 9.89415C88.5933 8.89482 88.8431 8.11736 89.3428 7.56176C89.8425 7.00244 90.536 6.72277 91.4235 6.72277C92.2811 6.72277 92.9616 7.00803 93.465 7.57854C93.9721 8.14905 94.2257 8.92092 94.2257 9.89415ZM89.5553 9.89415C89.5553 10.6772 89.712 11.2738 90.0252 11.684C90.3384 12.0942 90.7989 12.2992 91.4067 12.2992C92.0145 12.2992 92.475 12.096 92.7882 11.6896C93.1052 11.2794 93.2637 10.6809 93.2637 9.89415C93.2637 9.11482 93.1052 8.5238 92.7882 8.12109C92.475 7.71464 92.0108 7.51142 91.3955 7.51142C90.7877 7.51142 90.3291 7.71092 90.0196 8.1099C89.7101 8.50889 89.5553 9.10364 89.5553 9.89415ZM99.6988 11.2925C99.6988 11.863 99.4863 12.303 99.0612 12.6125C98.6361 12.922 98.0395 13.0767 97.2713 13.0767C96.4585 13.0767 95.8246 12.9481 95.3696 12.6908V11.8294C95.6642 11.9786 95.9793 12.096 96.3149 12.1818C96.6542 12.2676 96.9805 12.3104 97.2937 12.3104C97.7785 12.3104 98.1514 12.234 98.4124 12.0811C98.6734 11.9245 98.8039 11.6877 98.8039 11.3708C98.8039 11.1321 98.6995 10.9289 98.4907 10.7611C98.2856 10.5896 97.8829 10.3882 97.2825 10.157C96.712 9.94449 96.3056 9.75991 96.0632 9.6033C95.8246 9.44296 95.6456 9.26211 95.5263 9.06075C95.4107 8.8594 95.3529 8.61889 95.3529 8.33922C95.3529 7.83956 95.5561 7.44617 95.9625 7.15905C96.369 6.8682 96.9264 6.72277 97.6349 6.72277C98.2949 6.72277 98.94 6.85701 99.5702 7.12549L99.2402 7.88058C98.6249 7.62702 98.0675 7.50024 97.5678 7.50024C97.1278 7.50024 96.7959 7.56922 96.5722 7.70719C96.3485 7.84515 96.2366 8.03532 96.2366 8.2777C96.2366 8.44177 96.2776 8.5816 96.3596 8.69719C96.4454 8.81279 96.5815 8.92279 96.768 9.02719C96.9544 9.1316 97.3124 9.28262 97.8419 9.48025C98.569 9.745 99.0593 10.0116 99.3129 10.2801C99.5702 10.5486 99.6988 10.886 99.6988 11.2925ZM106.411 13.0767C105.523 13.0767 104.836 12.8045 104.347 12.2601C103.862 11.712 103.62 10.9382 103.62 9.93889C103.62 8.91346 103.866 8.12109 104.358 7.56176C104.854 7.00244 105.559 6.72277 106.472 6.72277C106.767 6.72277 107.062 6.75447 107.356 6.81786C107.651 6.88125 107.882 6.95583 108.05 7.04159L107.765 7.83024C107.559 7.7482 107.336 7.68109 107.093 7.62888C106.851 7.57295 106.637 7.54498 106.45 7.54498C105.205 7.54498 104.582 8.33922 104.582 9.92771C104.582 10.6809 104.733 11.2589 105.035 11.6616C105.341 12.0643 105.792 12.2657 106.389 12.2657C106.899 12.2657 107.423 12.1557 107.96 11.9357V12.7579C107.55 12.9704 107.034 13.0767 106.411 13.0767ZM111.895 13.0767C110.989 13.0767 110.273 12.8008 109.747 12.2489C109.225 11.697 108.964 10.9308 108.964 9.95008C108.964 8.96194 109.207 8.17702 109.691 7.59532C110.18 7.01362 110.834 6.72277 111.655 6.72277C112.423 6.72277 113.031 6.97634 113.478 7.48346C113.926 7.98685 114.149 8.65245 114.149 9.48025V10.0675H109.926C109.945 10.7872 110.126 11.3335 110.469 11.7064C110.816 12.0792 111.302 12.2657 111.929 12.2657C112.589 12.2657 113.241 12.1277 113.886 11.8518V12.6796C113.558 12.8213 113.247 12.922 112.952 12.9816C112.662 13.045 112.309 13.0767 111.895 13.0767ZM111.644 7.50024C111.151 7.50024 110.758 7.66058 110.463 7.98126C110.173 8.30194 110.001 8.74567 109.949 9.31245H113.154C113.154 8.72702 113.023 8.27956 112.762 7.97007C112.501 7.65685 112.128 7.50024 111.644 7.50024ZM118.42 6.72277C118.692 6.72277 118.936 6.74515 119.153 6.78989L119.024 7.65125C118.77 7.59532 118.547 7.56736 118.353 7.56736C117.857 7.56736 117.432 7.76871 117.077 8.17143C116.727 8.57414 116.552 9.07567 116.552 9.67601V12.9648H115.623V6.83464H116.39L116.496 7.97007H116.541C116.768 7.57108 117.042 7.26346 117.363 7.04718C117.683 6.83091 118.036 6.72277 118.42 6.72277ZM122.165 12.3104C122.329 12.3104 122.487 12.2992 122.64 12.2769C122.793 12.2508 122.914 12.2247 123.004 12.1986V12.9089C122.903 12.9574 122.754 12.9965 122.556 13.0264C122.362 13.0599 122.187 13.0767 122.03 13.0767C120.845 13.0767 120.252 12.4521 120.252 11.203V7.55617H119.374V7.10871L120.252 6.72277L120.643 5.41395H121.18V6.83464H122.959V7.55617H121.18V11.1638C121.18 11.533 121.268 11.8164 121.443 12.014C121.618 12.2116 121.859 12.3104 122.165 12.3104ZM125.048 12.9648H124.12V6.83464H125.048V12.9648ZM124.041 5.17344C124.041 4.9609 124.094 4.80615 124.198 4.7092C124.302 4.60853 124.433 4.55819 124.589 4.55819C124.739 4.55819 124.867 4.60853 124.975 4.7092C125.084 4.80988 125.138 4.96463 125.138 5.17344C125.138 5.38226 125.084 5.53887 124.975 5.64328C124.867 5.74396 124.739 5.79429 124.589 5.79429C124.433 5.79429 124.302 5.74396 124.198 5.64328C124.094 5.53887 124.041 5.38226 124.041 5.17344ZM129.665 7.55617H128.105V12.9648H127.176V7.55617H126.08V7.13668L127.176 6.80108V6.45989C127.176 4.95344 127.835 4.20022 129.151 4.20022C129.475 4.20022 129.856 4.26547 130.292 4.39598L130.051 5.13988C129.693 5.02429 129.388 4.96649 129.134 4.96649C128.784 4.96649 128.524 5.08395 128.357 5.31887C128.189 5.55006 128.105 5.92294 128.105 6.43752V6.83464H129.665V7.55617ZM131.713 12.9648H130.784V6.83464H131.713V12.9648ZM130.706 5.17344C130.706 4.9609 130.758 4.80615 130.862 4.7092C130.967 4.60853 131.097 4.55819 131.254 4.55819C131.403 4.55819 131.532 4.60853 131.64 4.7092C131.748 4.80988 131.802 4.96463 131.802 5.17344C131.802 5.38226 131.748 5.53887 131.64 5.64328C131.532 5.74396 131.403 5.79429 131.254 5.79429C131.097 5.79429 130.967 5.74396 130.862 5.64328C130.758 5.53887 130.706 5.38226 130.706 5.17344ZM136.017 13.0767C135.129 13.0767 134.441 12.8045 133.953 12.2601C133.468 11.712 133.226 10.9382 133.226 9.93889C133.226 8.91346 133.472 8.12109 133.964 7.56176C134.46 7.00244 135.165 6.72277 136.078 6.72277C136.373 6.72277 136.667 6.75447 136.962 6.81786C137.257 6.88125 137.488 6.95583 137.656 7.04159L137.37 7.83024C137.165 7.7482 136.941 7.68109 136.699 7.62888C136.457 7.57295 136.242 7.54498 136.056 7.54498C134.81 7.54498 134.188 8.33922 134.188 9.92771C134.188 10.6809 134.339 11.2589 134.641 11.6616C134.947 12.0643 135.398 12.2657 135.994 12.2657C136.505 12.2657 137.029 12.1557 137.566 11.9357V12.7579C137.156 12.9704 136.639 13.0767 136.017 13.0767ZM142.681 12.9648L142.497 12.0923H142.452C142.146 12.4764 141.84 12.7374 141.535 12.8754C141.233 13.0096 140.854 13.0767 140.399 13.0767C139.791 13.0767 139.314 12.9201 138.967 12.6069C138.624 12.2937 138.453 11.8481 138.453 11.2701C138.453 10.0321 139.443 9.3833 141.423 9.32364L142.463 9.29008V8.90974C142.463 8.42872 142.359 8.07448 142.15 7.84702C141.945 7.61583 141.615 7.50024 141.16 7.50024C140.649 7.50024 140.071 7.65685 139.426 7.97007L139.141 7.25973C139.443 7.09566 139.773 6.96701 140.131 6.87379C140.492 6.78057 140.854 6.73396 141.216 6.73396C141.947 6.73396 142.487 6.89617 142.838 7.22057C143.192 7.54498 143.369 8.06516 143.369 8.78109V12.9648H142.681ZM140.584 12.3104C141.162 12.3104 141.615 12.152 141.943 11.835C142.275 11.5181 142.441 11.0743 142.441 10.5038V9.95008L141.512 9.98923C140.774 10.0153 140.241 10.1309 139.913 10.336C139.588 10.5374 139.426 10.8525 139.426 11.2813C139.426 11.6169 139.527 11.8723 139.728 12.0476C139.933 12.2228 140.218 12.3104 140.584 12.3104ZM149.346 12.1426H149.295C148.866 12.7654 148.225 13.0767 147.371 13.0767C146.57 13.0767 145.945 12.8026 145.497 12.2545C145.054 11.7064 144.832 10.927 144.832 9.91652C144.832 8.90601 145.056 8.12109 145.503 7.56176C145.951 7.00244 146.573 6.72277 147.371 6.72277C148.203 6.72277 148.84 7.02481 149.284 7.62888H149.357L149.318 7.18701L149.295 6.75633V4.26174H150.224V12.9648H149.469L149.346 12.1426ZM147.489 12.2992C148.123 12.2992 148.581 12.1277 148.865 11.7847C149.152 11.4379 149.295 10.8804 149.295 10.1123V9.91652C149.295 9.0477 149.15 8.42872 148.859 8.05956C148.572 7.68668 148.111 7.50024 147.477 7.50024C146.933 7.50024 146.515 7.71278 146.225 8.13787C145.937 8.55923 145.794 9.15584 145.794 9.92771C145.794 10.7108 145.937 11.3018 146.225 11.7008C146.512 12.0998 146.933 12.2992 147.489 12.2992ZM157.375 9.89415C157.375 10.8935 157.123 11.6747 156.62 12.2377C156.116 12.797 155.421 13.0767 154.533 13.0767C153.985 13.0767 153.499 12.9481 153.074 12.6908C152.649 12.4335 152.32 12.0643 152.089 11.5833C151.858 11.1023 151.742 10.5392 151.742 9.89415C151.742 8.89482 151.992 8.11736 152.492 7.56176C152.992 7.00244 153.685 6.72277 154.573 6.72277C155.43 6.72277 156.111 7.00803 156.614 7.57854C157.121 8.14905 157.375 8.92092 157.375 9.89415ZM152.705 9.89415C152.705 10.6772 152.861 11.2738 153.174 11.684C153.488 12.0942 153.948 12.2992 154.556 12.2992C155.164 12.2992 155.624 12.096 155.937 11.6896C156.254 11.2794 156.413 10.6809 156.413 9.89415C156.413 9.11482 156.254 8.5238 155.937 8.12109C155.624 7.71464 155.16 7.51142 154.545 7.51142C153.937 7.51142 153.478 7.71092 153.169 8.1099C152.859 8.50889 152.705 9.10364 152.705 9.89415ZM162.848 11.2925C162.848 11.863 162.635 12.303 162.21 12.6125C161.785 12.922 161.189 13.0767 160.421 13.0767C159.608 13.0767 158.974 12.9481 158.519 12.6908V11.8294C158.813 11.9786 159.128 12.096 159.464 12.1818C159.803 12.2676 160.13 12.3104 160.443 12.3104C160.928 12.3104 161.301 12.234 161.562 12.0811C161.823 11.9245 161.953 11.6877 161.953 11.3708C161.953 11.1321 161.849 10.9289 161.64 10.7611C161.435 10.5896 161.032 10.3882 160.432 10.157C159.861 9.94449 159.455 9.75991 159.212 9.6033C158.974 9.44296 158.795 9.26211 158.675 9.06075C158.56 8.8594 158.502 8.61889 158.502 8.33922C158.502 7.83956 158.705 7.44617 159.112 7.15905C159.518 6.8682 160.076 6.72277 160.784 6.72277C161.444 6.72277 162.089 6.85701 162.719 7.12549L162.389 7.88058C161.774 7.62702 161.217 7.50024 160.717 7.50024C160.277 7.50024 159.945 7.56922 159.721 7.70719C159.498 7.84515 159.386 8.03532 159.386 8.2777C159.386 8.44177 159.427 8.5816 159.509 8.69719C159.595 8.81279 159.731 8.92279 159.917 9.02719C160.104 9.1316 160.462 9.28262 160.991 9.48025C161.718 9.745 162.208 10.0116 162.462 10.2801C162.719 10.5486 162.848 10.886 162.848 11.2925ZM169.963 13.0767C169.564 13.0767 169.198 13.004 168.867 12.8586C168.538 12.7094 168.262 12.482 168.039 12.1762H167.972C168.016 12.5342 168.039 12.8735 168.039 13.1942V15.7167H167.11V6.83464H167.865L167.994 7.67363H168.039C168.277 7.33803 168.555 7.09566 168.872 6.9465C169.189 6.79735 169.553 6.72277 169.963 6.72277C170.776 6.72277 171.402 7.00057 171.842 7.55617C172.286 8.11177 172.508 8.89109 172.508 9.89415C172.508 10.9009 172.282 11.684 171.831 12.2433C171.383 12.7989 170.761 13.0767 169.963 13.0767ZM169.829 7.51142C169.202 7.51142 168.749 7.68481 168.469 8.0316C168.19 8.37838 168.046 8.93024 168.039 9.6872V9.89415C168.039 10.7555 168.182 11.3726 168.469 11.7455C168.757 12.1147 169.217 12.2992 169.851 12.2992C170.38 12.2992 170.794 12.0848 171.093 11.656C171.395 11.2272 171.546 10.6362 171.546 9.88296C171.546 9.11855 171.395 8.53312 171.093 8.12668C170.794 7.71651 170.373 7.51142 169.829 7.51142ZM176.611 13.0767C175.704 13.0767 174.988 12.8008 174.463 12.2489C173.941 11.697 173.68 10.9308 173.68 9.95008C173.68 8.96194 173.922 8.17702 174.407 7.59532C174.895 7.01362 175.55 6.72277 176.37 6.72277C177.138 6.72277 177.746 6.97634 178.193 7.48346C178.641 7.98685 178.865 8.65245 178.865 9.48025V10.0675H174.642C174.66 10.7872 174.841 11.3335 175.184 11.7064C175.531 12.0792 176.018 12.2657 176.644 12.2657C177.304 12.2657 177.957 12.1277 178.602 11.8518V12.6796C178.274 12.8213 177.962 12.922 177.668 12.9816C177.377 13.045 177.024 13.0767 176.611 13.0767ZM176.359 7.50024C175.867 7.50024 175.473 7.66058 175.179 7.98126C174.888 8.30194 174.716 8.74567 174.664 9.31245H177.869C177.869 8.72702 177.738 8.27956 177.477 7.97007C177.216 7.65685 176.844 7.50024 176.359 7.50024ZM181.267 12.9648H180.339V4.26174H181.267V12.9648ZM186.891 12.9648L186.707 12.0923H186.662C186.356 12.4764 186.05 12.7374 185.745 12.8754C185.442 13.0096 185.064 13.0767 184.609 13.0767C184.001 13.0767 183.524 12.9201 183.177 12.6069C182.834 12.2937 182.663 11.8481 182.663 11.2701C182.663 10.0321 183.653 9.3833 185.633 9.32364L186.673 9.29008V8.90974C186.673 8.42872 186.569 8.07448 186.36 7.84702C186.155 7.61583 185.825 7.50024 185.37 7.50024C184.859 7.50024 184.281 7.65685 183.636 7.97007L183.351 7.25973C183.653 7.09566 183.983 6.96701 184.341 6.87379C184.702 6.78057 185.064 6.73396 185.426 6.73396C186.157 6.73396 186.697 6.89617 187.048 7.22057C187.402 7.54498 187.579 8.06516 187.579 8.78109V12.9648H186.891ZM184.794 12.3104C185.372 12.3104 185.825 12.152 186.153 11.835C186.485 11.5181 186.651 11.0743 186.651 10.5038V9.95008L185.722 9.98923C184.984 10.0153 184.451 10.1309 184.122 10.336C183.798 10.5374 183.636 10.8525 183.636 11.2813C183.636 11.6169 183.737 11.8723 183.938 12.0476C184.143 12.2228 184.428 12.3104 184.794 12.3104Z" fill="#212529"/>
</svg>
