<svg width="41" height="31" viewBox="0 0 41 31" fill="none" xmlns="http://www.w3.org/2000/svg">
<path d="M8.65947 0.77518C8.49205 0.6053 8.2926 0.469893 8.07254 0.376695C7.85247 0.283497 7.61609 0.234335 7.37691 0.232019C7.13773 0.229703 6.90043 0.274278 6.67858 0.363197C6.45673 0.452116 6.25467 0.583636 6.08396 0.750242C4.15282 2.65952 2.62096 4.93018 1.57675 7.4312C0.532543 9.93222 -0.00334032 12.6141 1.56656e-05 15.3221C-0.00311647 18.1341 0.574941 20.9166 1.69831 23.4971C2.82168 26.0776 4.46638 28.401 6.53035 30.323C6.87773 30.6423 7.33659 30.8144 7.80951 30.8028C8.28243 30.7912 8.73216 30.5967 9.06323 30.2606C9.8557 29.4726 9.75789 28.2181 8.99552 27.4924C7.33911 25.9226 6.02098 24.0342 5.12125 21.942C4.22152 19.8499 3.75898 17.5976 3.76173 15.3221C3.76173 10.7184 5.62001 6.54359 8.63439 3.50601C9.36166 2.77031 9.43689 1.54829 8.65947 0.77518Z" fill="#004B6D"/>
<path d="M13.0755 5.16951C12.7452 4.83156 12.2937 4.63759 11.8198 4.63011C11.346 4.62263 10.8885 4.80225 10.5476 5.12961C9.19046 6.46154 8.11329 8.04863 7.37879 9.79849C6.64429 11.5483 6.26714 13.426 6.2693 15.3222C6.2693 19.5419 8.1 23.3351 11.0166 25.9562C11.3608 26.2586 11.8088 26.4177 12.2677 26.4006C12.7267 26.3834 13.1614 26.1912 13.4817 25.864C14.3043 25.046 14.1513 23.7591 13.3789 23.0359C12.3202 22.0461 11.4768 20.8509 10.9009 19.5242C10.3251 18.1974 10.029 16.7673 10.031 15.3222C10.031 12.4542 11.1771 9.85058 13.0404 7.94025C13.7576 7.20704 13.8755 5.96258 13.0755 5.16951Z" fill="#004B6D"/>
<path d="M27.0493 5.16951C27.3796 4.83156 27.8311 4.63759 28.305 4.63011C28.7788 4.62263 29.2363 4.80225 29.5772 5.12961C30.9343 6.46154 32.0115 8.04863 32.746 9.79849C33.4805 11.5483 33.8577 13.426 33.8555 15.3222C33.8555 19.5419 32.0248 23.3351 29.1082 25.9562C28.764 26.2586 28.316 26.4177 27.8571 26.4006C27.3981 26.3834 26.9634 26.1912 26.6431 25.864C25.8205 25.046 25.9735 23.7591 26.7459 23.0359C27.8046 22.0461 28.648 20.8509 29.2239 19.5242C29.7997 18.1974 30.0958 16.7673 30.0938 15.3222C30.0938 12.4542 28.9477 9.85058 27.0844 7.94025C26.3672 7.20704 26.2493 5.96258 27.0493 5.16951Z" fill="#004B6D"/>
<path d="M31.4656 0.77518C31.633 0.6053 31.8324 0.469893 32.0525 0.376695C32.2726 0.283497 32.509 0.234335 32.7481 0.232019C32.9873 0.229703 33.2246 0.274278 33.4465 0.363197C33.6683 0.452116 33.8704 0.583636 34.0411 0.750242C35.9722 2.65952 37.5041 4.93018 38.5483 7.4312C39.5925 9.93222 40.1284 12.6141 40.125 15.3221C40.1282 18.1341 39.5501 20.9166 38.4267 23.4971C37.3034 26.0776 35.6587 28.401 33.5947 30.323C33.2473 30.6423 32.7885 30.8144 32.3155 30.8028C31.8426 30.7912 31.3929 30.5967 31.0618 30.2606C30.2694 29.4726 30.3672 28.2181 31.132 27.4924C32.788 25.9224 34.1057 24.0339 35.005 21.9417C35.9042 19.8496 36.3664 17.5974 36.3633 15.3221C36.3633 10.7184 34.505 6.54359 31.4907 3.50601C30.7634 2.77031 30.6882 1.54829 31.4656 0.77518Z" fill="#004B6D"/>
<path d="M20.0625 11.5811C19.0648 11.5811 18.108 11.9752 17.4026 12.6767C16.6971 13.3783 16.3008 14.3298 16.3008 15.3219C16.3008 16.314 16.6971 17.2656 17.4026 17.9671C18.108 18.6686 19.0648 19.0628 20.0625 19.0628C21.0602 19.0628 22.017 18.6686 22.7224 17.9671C23.4279 17.2656 23.8242 16.314 23.8242 15.3219C23.8242 14.3298 23.4279 13.3783 22.7224 12.6767C22.017 11.9752 21.0602 11.5811 20.0625 11.5811Z" fill="#004B6D"/>
</svg>
